<?xml version="1.0" encoding="UTF-8"?>
<svg width="65px" height="141px" viewBox="0 0 65 141" version="1.1" xmlns="http://www.w3.org/2000/svg" xmlns:xlink="http://www.w3.org/1999/xlink">
    <!-- Generator: Sketch 42 (36781) - http://www.bohemiancoding.com/sketch -->
    <title>Banana</title>
    <desc>Created with Sketch.</desc>
    <defs>
        <path d="M2.2420149,58.3147539 C6.23969281,82.7215077 19.7582004,110.438152 29.1949637,109.111902 C38.9229421,107.744724 39.2387808,84.6151192 35.7368421,59.6975309 C34.6246137,51.7836144 32.5828516,39.5716274 31.5736994,30.8374727 C31.6201104,25.9890106 30.9603873,21.3628894 30.5553502,17.3406211 C29.9680323,11.5081919 27.6113961,0.982711188 22.5894063,0.0971988929 C14.5563996,-1.31923692 4.49245255,13.0054204 1.90433106,32.3543554 C0.575294597,42.2903032 0.709313017,51.5069444 2.2420149,58.3147539 Z" id="path-1"></path>
        <mask id="mask-3" maskContentUnits="userSpaceOnUse" maskUnits="objectBoundingBox" x="-2" y="-2" width="40.7809386" height="113.157109">
            <rect x="-1.00726356" y="-1.99939197" width="40.7809386" height="113.157109" fill="white"></rect>
            <use xlink:href="#path-1" fill="black"></use>
        </mask>
        <path d="M2.13815789,0.429012346 L29.0789474,1.28703704 C29.0789474,1.28703704 32.0723684,6.43518519 28.6513158,7.29320988 C25.2302632,8.15123457 2.99342105,6.86419753 0.855263158,6.00617284 C-1.28289474,5.14814815 2.13815789,0.429012346 2.13815789,0.429012346 Z" id="path-4"></path>
        <mask id="mask-6" maskContentUnits="userSpaceOnUse" maskUnits="objectBoundingBox" x="-0.5" y="-0.5" width="31.1389185" height="8.14715898">
            <rect x="-0.347759279" y="-0.0709876543" width="31.1389185" height="8.14715898" fill="white"></rect>
            <use xlink:href="#path-4" fill="black"></use>
        </mask>
    </defs>
    <g id="Page-1" stroke="none" stroke-width="1" fill="none" fill-rule="evenodd">
        <g id="Banana" transform="translate(0.000000, 1.000000)">
            <path d="M21.3815789,109.969136 C21.3815789,109.969136 21.8540713,113.692274 23.3569478,119.966304 C24.8598243,126.240334 29.3130573,131.678343 29.3130573,131.678343 L23.7756708,136.567901" id="Path-6" stroke="#31272F" stroke-width="2" stroke-linecap="round" transform="translate(25.347318, 123.268519) rotate(30.000000) translate(-25.347318, -123.268519) "></path>
            <path d="M40.1973684,112.54321 C40.1973684,112.54321 40.6698608,116.266348 42.1727373,122.540378 C43.6756138,128.814408 48.1288468,134.252417 48.1288468,134.252417 L42.5914603,139.141975" id="Path-6-Copy-3" stroke="#31272F" stroke-width="2" stroke-linecap="round" transform="translate(44.163108, 125.842593) scale(-1, 1) rotate(30.000000) translate(-44.163108, -125.842593) "></path>
            <path d="M52.3876321,68.6604356 C52.3876321,68.6604356 52.6388306,73.5686462 51.1011225,81.3479388 C49.5634144,89.1272314 49.2497802,93.6797659 49.2497802,93.6797659" id="Path-14-Copy-3" stroke="#31272F" stroke-width="3" stroke-linecap="round" transform="translate(50.826323, 81.170101) scale(-1, 1) rotate(18.000000) translate(-50.826323, -81.170101) "></path>
            <path d="M14.9671053,26.7135019 L27.782477,24.7046345 L41.9078947,27.5987654 C41.9078947,27.5987654 32.2741246,27.7599649 27.3684211,27.5987654 C22.4627175,27.437566 14.9671053,26.7135019 14.9671053,26.7135019 Z" id="Path-25" fill="#FBFBFC"></path>
            <g id="body" transform="translate(9.263158, 17.302469)">
                <mask id="mask-2" fill="white">
                    <use xlink:href="#path-1"></use>
                </mask>
                <g id="Combined-Shape">
                    <use fill="#FFDF34" fill-rule="evenodd" xlink:href="#path-1"></use>
                    <use stroke="#FFA209" mask="url(#mask-3)" stroke-width="4" xlink:href="#path-1"></use>
                </g>
                <path d="M21.9539474,-6.51867449e-13 C25.7032282,4.29872779 29.2236842,18.4475309 29.2236842,31.7469136 C33.0723684,45.904321 35.6019158,72.8963125 35.6381579,84.0864198 C35.7003764,103.296981 27.9407895,108.111111 21.9539474,105.966049 C23.4251592,113.222863 32.6447368,110.256173 37.3486842,105.966049 C38.9113303,104.540875 40.3635848,93.0546444 39.7368421,78.6975309 C39.1100994,64.3404173 33.0723684,8.58024691 33.0723684,8.58024691 C33.0723684,8.58024691 26.6578947,-3.00308642 21.9539474,-6.51867449e-13 Z" id="Path-21" fill="#FFA209" opacity="0.8" mask="url(#mask-2)"></path>
                <path d="M22.6148325,-1.71604938 C22.6148325,-1.71604938 19.0771531,3.86111111 16.6279904,13.7283951 C14.1788278,23.595679 16.6279904,33.0339506 16.6279904,33.0339506" id="Path-22" stroke="#FFAE11" stroke-width="2" stroke-linecap="round" mask="url(#mask-2)"></path>
                <path d="M21.5263158,69.5 C21.5263158,69.5 22.8092105,82.3703704 26.6578947,91.3796296" id="Path-22-Copy" stroke="#FFAE11" stroke-width="2" stroke-linecap="round" mask="url(#mask-2)"></path>
            </g>
            <path d="M10.3350006,75.4098774 C10.3350006,75.4098774 10.586199,80.318088 9.04849093,88.0973806 C7.51078282,95.8766732 7.19714859,100.429208 7.19714859,100.429208" id="Path-14-Copy-2" stroke="#31272F" stroke-width="3" stroke-linecap="round" transform="translate(8.773691, 87.919542) rotate(18.000000) translate(-8.773691, -87.919542) "></path>
            <ellipse id="Oval-9" fill-opacity="0.463654891" fill="#24262A" cx="32.5" cy="137.425926" rx="32.5" ry="1.71604938"></ellipse>
            <g id="EYE-2" transform="translate(15.394737, 54.197531)">
                <ellipse id="Oval-5" stroke="#31272F" stroke-width="0.5" fill="#FEFDF9" cx="2.99342105" cy="5.57716049" rx="2.99342105" ry="3.00308642"></ellipse>
                <path d="M1.08869927,4.60155289 C0.939453877,4.89422958 0.855263158,5.22583139 0.855263158,5.57716049 C0.855263158,6.76184537 1.81254905,7.72222222 2.99342105,7.72222222 C4.17429305,7.72222222 5.13157895,6.76184537 5.13157895,5.57716049 C5.13157895,4.51736982 4.36549536,3.63708528 3.35858312,3.46325782 C3.39913568,3.58854546 3.42105263,3.72226053 3.42105263,3.86111111 C3.42105263,4.57192204 2.84668109,5.14814815 2.13815789,5.14814815 C1.7043831,5.14814815 1.32089077,4.93216821 1.08869927,4.60155289 Z" id="Combined-Shape" fill="#31272F"></path>
                <path d="M0.855263158,0.858024691 L4.27631579,0" id="Path-4" stroke="#31272F" stroke-linecap="round"></path>
            </g>
            <g id="EYE-2-Copy" transform="translate(31.644737, 53.339506)">
                <ellipse id="Oval-5" stroke="#31272F" stroke-width="0.5" fill="#FEFDF9" cx="2.99342105" cy="6.43518519" rx="2.99342105" ry="3.00308642"></ellipse>
                <path d="M1.08869927,5.45957758 C0.939453877,5.75225427 0.855263158,6.08385608 0.855263158,6.43518519 C0.855263158,7.61987007 1.81254905,8.58024691 2.99342105,8.58024691 C4.17429305,8.58024691 5.13157895,7.61987007 5.13157895,6.43518519 C5.13157895,5.37539451 4.36549536,4.49510997 3.35858312,4.32128251 C3.39913568,4.44657015 3.42105263,4.58028522 3.42105263,4.7191358 C3.42105263,5.42994673 2.84668109,6.00617284 2.13815789,6.00617284 C1.7043831,6.00617284 1.32089077,5.7901929 1.08869927,5.45957758 Z" id="Combined-Shape" fill="#31272F"></path>
                <path d="M2.13815789,0.429012346 L5.55921053,1.28703704" id="Path-4" stroke="#31272F" stroke-linecap="round"></path>
            </g>
            <path d="M22.6644737,72.2160494 L32.9276316,72.2160494 C32.9276316,72.2160494 32.9276316,68.3549383 27.7960526,68.3549383 C22.6644737,68.3549383 22.6644737,72.2160494 22.6644737,72.2160494 Z" id="Path-23" fill="#31272F"></path>
            <g id="Group-7" transform="translate(12.828947, 26.740741)">
                <mask id="mask-5" fill="white">
                    <use xlink:href="#path-4"></use>
                </mask>
                <g id="Path-24" stroke-linecap="round" stroke-linejoin="round">
                    <use stroke="#FBFBFC" fill="#4990E2" fill-rule="evenodd" xlink:href="#path-4"></use>
                    <use stroke="#4990E2" mask="url(#mask-6)" xlink:href="#path-4"></use>
                </g>
                <path d="M0.855263158,2.57407407 C0.855263158,2.57407407 6.84210526,3.43209877 14.9671053,3.86111111 C23.0921053,4.29012346 30.7894737,3.86111111 30.7894737,3.86111111" id="Path-26" stroke="#FBFBFC" stroke-width="2" mask="url(#mask-5)"></path>
            </g>
            <path d="M27.4249674,18.4154395 C27.4249674,18.4154395 25.2868095,6.40309382 25.7144411,3.82901974 C26.1420726,1.25494567 31.7012832,-1.74814075 32.1289147,1.25494567 C32.5565463,4.25803209 32.1289147,18.8444518 32.1289147,18.8444518 L30.4183884,20.1314889 L27.4249674,18.4154395 Z" id="Path-11" stroke="#8B572A" fill="#91754C"></path>
        </g>
    </g>
</svg>