<?xml version="1.0" encoding="UTF-8"?>
<svg width="115px" height="133px" viewBox="0 0 115 133" version="1.1" xmlns="http://www.w3.org/2000/svg" xmlns:xlink="http://www.w3.org/1999/xlink">
    <!-- Generator: Sketch 42 (36781) - http://www.bohemiancoding.com/sketch -->
    <title>Carrot</title>
    <desc>Created with Sketch.</desc>
    <defs>
        <path d="M21,72 C31.4934102,72 41,44 42,35 C43,26 49.5,0 21.9999705,0 C-5.50005891,5.67133645e-15 1,28 2,35 C3,42 10.5065898,72 21,72 Z" id="path-1"></path>
        <mask id="mask-3" maskContentUnits="userSpaceOnUse" maskUnits="objectBoundingBox" x="-1" y="-1" width="44.7554119" height="74">
            <rect x="-0.377714272" y="-1" width="44.7554119" height="74" fill="white"></rect>
            <use xlink:href="#path-1" fill="black"></use>
        </mask>
        <path d="M83.0863678,15.6656956 L83,16 L98,33.5 L104.428571,36 L110.001214,36 C111.657398,36 113,37.3465171 113,39 C113,40.6568542 111.652236,42 110.00663,42 L2.99336972,42 C1.34017727,42 0,40.6534829 0,39 C0,37.3431458 1.33542289,36 3.00409688,36 L6.75931379,36 L8.64285714,36 L16.5,33.5 L36,16 L34.7405888,12.0766423 C34.5060983,11.5402578 34.3227179,10.9735332 34.1970942,10.3835305 L34.1362345,10.1939386 L34.1588731,10.1939386 C34.0546839,9.64653102 34,9.0800507 34,8.5 C34,3.80557963 37.581722,0 42,0 C45.6283705,0 48.6925682,2.5664807 49.6722401,6.08406719 C50.9101427,3.09054143 53.7252962,1 57,1 C59.6775589,1 62.0478853,2.39763185 63.5,4.54372992 C64.9521147,2.39763185 67.3224411,1 70,1 C70.9446425,1 71.8510444,1.1739601 72.6923763,1.49337401 C73.9358089,0.548051619 75.4140079,0 77,0 C81.418278,0 85,4.25329488 85,9.5 C85,11.853067 84.2795777,14.006321 83.0863678,15.6656956 Z" id="path-4"></path>
        <mask id="mask-6" maskContentUnits="userSpaceOnUse" maskUnits="objectBoundingBox" x="-1" y="-1" width="115" height="44">
            <rect x="-1" y="-1" width="115" height="44" fill="white"></rect>
            <use xlink:href="#path-4" fill="black"></use>
        </mask>
    </defs>
    <g id="Page-1" stroke="none" stroke-width="1" fill="none" fill-rule="evenodd">
        <g id="Carrot" transform="translate(1.000000, 1.000000)">
            <g id="hat" transform="translate(34.000000, 0.000000)" stroke="#417505" fill="#7ED321">
                <path d="M33.630643,54.2076058 C35.5636396,54.2076058 38.130643,34.7442466 38.630643,30.6705202 C39.130643,26.5967939 44.130643,7.13343465 33.630643,7.13343465 C23.130643,7.13343465 28.630643,27.5020664 28.630643,30.6705202 C28.630643,33.8389741 31.6976464,54.2076058 33.630643,54.2076058 Z" id="Oval-25-Copy" transform="translate(33.723294, 30.670520) rotate(27.000000) translate(-33.723294, -30.670520) "></path>
                <path d="M16.630643,55.2076058 C18.5636396,55.2076058 21.130643,35.7442466 21.630643,31.6705202 C22.130643,27.5967939 27.130643,8.13343465 16.630643,8.13343465 C6.13064298,8.13343465 11.630643,28.5020664 11.630643,31.6705202 C11.630643,34.8389741 14.6976464,55.2076058 16.630643,55.2076058 Z" id="Oval-25-Copy-2" transform="translate(16.723294, 31.670520) scale(-1, 1) rotate(27.000000) translate(-16.723294, -31.670520) "></path>
                <path d="M25.5,52 C27.4329966,52 30,30.5 30.5,26 C31,21.5 36,0 25.5,0 C15,5.19168168e-15 20.5,22.5 20.5,26 C20.5,29.5 23.5670034,52 25.5,52 Z" id="Oval-25"></path>
            </g>
            <g id="body" transform="translate(38.000000, 37.000000)">
                <mask id="mask-2" fill="white">
                    <use xlink:href="#path-1"></use>
                </mask>
                <g id="Body">
                    <use fill="#FF5300" fill-rule="evenodd" xlink:href="#path-1"></use>
                    <use stroke="#C43F00" mask="url(#mask-3)" stroke-width="2" xlink:href="#path-1"></use>
                </g>
                <path d="M3,28 C5,29.5 8,29.5 8,29.5" id="Path-44" stroke="#7A3D16" stroke-linecap="round" mask="url(#mask-2)"></path>
                <path d="M11,52 C13,53.5 16,53 16,53" id="Path-44-Copy-4" stroke="#7A3D16" stroke-linecap="round" mask="url(#mask-2)"></path>
                <path d="M5,39 C8.4,40.5 13.5,40.5 13.5,40.5" id="Path-44-Copy-3" stroke="#7A3D16" stroke-linecap="round" mask="url(#mask-2)"></path>
                <path d="M18,6 C18.5,6.25 21,7.5 25.5,6.5" id="Path-44-Copy" stroke="#7A3D16" stroke-linecap="round" mask="url(#mask-2)"></path>
                <path d="M29,43 C33.2,43 36,41.5 36,41.5" id="Path-44-Copy-2" stroke="#7A3D16" stroke-linecap="round" mask="url(#mask-2)"></path>
                <path d="M22,0.5 C22,0.5 41.7581468,6.54250624 41.5,25 C41.2418532,43.4574938 31.8699448,66 21,72 C10.1300552,78 32.9205687,72.6012223 39.5,53 C46.0794313,33.3987777 49,19.5 41.5,6 C34,-7.5 22,0.5 22,0.5 Z" id="Path-45" fill="#E24B01" mask="url(#mask-2)"></path>
            </g>
            <g id="Arms" transform="translate(20.000000, 53.500000)" stroke="#31272F" stroke-width="2" stroke-linecap="round">
                <path d="M23,26.7763158 C23,26.7763158 14.6363636,23.1578947 11.5,18.0921053 C8.36363636,13.0263158 5,3.5 5,3.5 L0,0.723684211" id="Path-5"></path>
                <path d="M80,26.7763158 C80,26.7763158 71.6363636,23.1578947 68.5,18.0921053 C65.3636364,13.0263158 62,3.5 62,3.5 L57,0.723684211" id="Path-5-Copy" transform="translate(68.500000, 13.750000) scale(-1, 1) translate(-68.500000, -13.750000) "></path>
            </g>
            <g id="Ground" transform="translate(0.000000, 89.000000)">
                <mask id="mask-5" fill="white">
                    <use xlink:href="#path-4"></use>
                </mask>
                <g id="groundCarrot">
                    <use fill="#E2E0BF" fill-rule="evenodd" xlink:href="#path-4"></use>
                    <use stroke="#C4A778" mask="url(#mask-6)" stroke-width="2" xlink:href="#path-4"></use>
                </g>
                <path d="M81,16.5721846 C80.0107912,20.0701181 97.5,33 96,37.5 C94.5,42 72.4619784,42.3477083 73,42 C73.0693612,41.9551738 109,43.5 112,42 C115,40.5 112.368221,36.8682209 112,36.5 C110.5,35.5 100.271392,35.4307597 98.5,33.5 C95.9480305,30.7184365 83.4479003,17.2421003 83.9132683,16.5721846 C85.2095554,14.7061279 86,12.2242197 86,9.5 C86,3.70101013 82.418278,-1 78,-1 C76.8891381,-1 74.0528012,0 74.5,0 C77,0 80.9492637,4.29705494 81.5,6.5 C82,8.5 83,9.5 81,16.5721846 Z" id="Oval-27" fill="#D2C4AE" mask="url(#mask-5)"></path>
            </g>
            <g id="EYE-2" transform="translate(48.000000, 49.000000)">
                <ellipse id="Oval-5" stroke="#31272F" stroke-width="0.5" fill="#FEFDF9" cx="3.5" cy="6.5" rx="3.5" ry="3.5"></ellipse>
                <path d="M1.27294068,5.36296092 C1.09843838,5.70406613 1,6.09053731 1,6.5 C1,7.88071187 2.11928813,9 3.5,9 C4.88071187,9 6,7.88071187 6,6.5 C6,5.26484827 5.10427149,4.23890515 3.92695872,4.03631487 C3.97437403,4.18233355 4,4.33817414 4,4.5 C4,5.32842712 3.32842712,6 2.5,6 C1.99281716,6 1.54442613,5.74828238 1.27294068,5.36296092 Z" id="Combined-Shape" fill="#31272F"></path>
                <path d="M1,1 L5,0" id="Path-4" stroke="#31272F" stroke-linecap="round"></path>
            </g>
            <g id="EYE-2-Copy" transform="translate(67.000000, 48.000000)">
                <ellipse id="Oval-5" stroke="#31272F" stroke-width="0.5" fill="#FEFDF9" cx="3.5" cy="7.5" rx="3.5" ry="3.5"></ellipse>
                <path d="M1.27294068,6.36296092 C1.09843838,6.70406613 1,7.09053731 1,7.5 C1,8.88071187 2.11928813,10 3.5,10 C4.88071187,10 6,8.88071187 6,7.5 C6,6.26484827 5.10427149,5.23890515 3.92695872,5.03631487 C3.97437403,5.18233355 4,5.33817414 4,5.5 C4,6.32842712 3.32842712,7 2.5,7 C1.99281716,7 1.54442613,6.74828238 1.27294068,6.36296092 Z" id="Combined-Shape" fill="#31272F"></path>
                <path d="M2.5,0.5 L6.5,1.5" id="Path-4" stroke="#31272F" stroke-linecap="round"></path>
            </g>
            <path d="M56.5,61.5 L64.5,61.5 C64.5,61.5 65,65.5 60.5,65.5 C56,65.5 56.5,61.5 56.5,61.5 Z" id="Path-43" fill="#31272F"></path>
        </g>
    </g>
</svg>