<?xml version="1.0" encoding="UTF-8"?>
<svg width="76px" height="135px" viewBox="0 0 76 135" version="1.1" xmlns="http://www.w3.org/2000/svg" xmlns:xlink="http://www.w3.org/1999/xlink">
    <!-- Generator: Sketch 42 (36781) - http://www.bohemiancoding.com/sketch -->
    <title>cucumber</title>
    <desc>Created with Sketch.</desc>
    <defs></defs>
    <g id="Page-1" stroke="none" stroke-width="1" fill="none" fill-rule="evenodd">
        <g id="cucumber">
            <ellipse id="Oval-9" fill-opacity="0.463654891" fill="#24262A" cx="38" cy="133" rx="38" ry="2"></ellipse>
            <path d="M63,45 C63,45 57,48.5 57,50.5 C57,52.5 61.5,57 61.5,57" id="Path-57-Copy" stroke="#31272F" stroke-width="2" stroke-linecap="round" stroke-linejoin="round" transform="translate(60.000000, 51.000000) scale(-1, 1) translate(-60.000000, -51.000000) "></path>
            <g id="Group-9" transform="translate(33.742962, 122.670769) scale(-1, 1) rotate(4.000000) translate(-33.742962, -122.670769) translate(21.742962, 111.670769)" stroke="#31272F" stroke-width="2" stroke-linecap="round">
                <path d="M5.48042086,0.674207442 C5.48042086,0.674207442 4.30494626,4.77740795 4.30494626,9.77740795 C4.30494626,14.7774079 8.54575173,18.3435187 8.54575173,18.3435187 L4.04575173,21.8435187" id="Path-6-Copy" transform="translate(6.295752, 11.258863) rotate(22.000000) translate(-6.295752, -11.258863) "></path>
                <path d="M15.9880886,0.763677819 C15.9880886,0.763677819 14.7211399,5.58969728 15.2762059,9.67957503 C15.8312719,13.7694528 19.7090072,17.9351019 19.7090072,17.9351019 L15.2090072,21.4351019" id="Path-6" transform="translate(17.422281, 11.099390) rotate(22.000000) translate(-17.422281, -11.099390) "></path>
            </g>
            <path d="M47,9.5 C49.5,8.5 51.5,1.5 51.5,1.5 C51.5,1.5 54.5,2.66453526e-15 55.5,2.5 C56.5,5 52.5,9 54.5,14 C56.5,19 44.5,10.5 47,9.5 Z" id="Path-58" stroke="#643A16" fill="#8B572A" transform="translate(51.159505, 8.308811) rotate(-8.000000) translate(-51.159505, -8.308811) "></path>
            <g id="body" transform="translate(18.000000, 6.000000)">
                <path d="M23.9384741,116.980113 C42.373364,118.014115 36.4025889,91.1170016 38.9853238,59.1138096 C38.0666629,41.3950929 36.5912915,2.04193761 23.9384741,1.62080116 C11.2856568,1.1996647 9.98558414,41.7055523 9.22277988,59.7469162 C10.6935563,88.607889 8.81018161,118.267675 23.9384741,116.980113 Z" id="Oval-31" stroke="#25680A" fill="#99D75E" transform="translate(24.104052, 59.319061) rotate(9.000000) translate(-24.104052, -59.319061) "></path>
                <g id="EYE-2" transform="translate(23.000000, 21.000000)">
                    <ellipse id="Oval-5" stroke="#31272F" stroke-width="0.5" fill="#FEFDF9" cx="2.01923077" cy="3.5" rx="2.01923077" ry="1.88461538"></ellipse>
                    <path d="M0.734388856,2.88774819 C0.63371445,3.07142022 0.576923077,3.27952009 0.576923077,3.5 C0.576923077,4.24346024 1.22266623,4.84615385 2.01923077,4.84615385 C2.81579531,4.84615385 3.46153846,4.24346024 3.46153846,3.5 C3.46153846,2.8349183 2.94477202,2.28248739 2.26555311,2.17340031 C2.29290809,2.25202576 2.30769231,2.33593992 2.30769231,2.42307692 C2.30769231,2.86915307 1.92024642,3.23076923 1.44230769,3.23076923 C1.14970221,3.23076923 0.891015075,3.09522897 0.734388856,2.88774819 Z" id="Combined-Shape" fill="#31272F"></path>
                    <path d="M0.576923077,0.538461538 L2.88461538,0" id="Path-4" stroke="#31272F" stroke-linecap="round"></path>
                </g>
                <g id="EYE-2-Copy" transform="translate(32.000000, 21.000000)">
                    <ellipse id="Oval-5" stroke="#31272F" stroke-width="0.5" fill="#FEFDF9" cx="2.01923077" cy="4.03846154" rx="2.01923077" ry="1.88461538"></ellipse>
                    <path d="M0.734388856,3.42620973 C0.63371445,3.60988176 0.576923077,3.81798163 0.576923077,4.03846154 C0.576923077,4.78192178 1.22266623,5.38461538 2.01923077,5.38461538 C2.81579531,5.38461538 3.46153846,4.78192178 3.46153846,4.03846154 C3.46153846,3.37337984 2.94477202,2.82094893 2.26555311,2.71186185 C2.29290809,2.7904873 2.30769231,2.87440146 2.30769231,2.96153846 C2.30769231,3.40761461 1.92024642,3.76923077 1.44230769,3.76923077 C1.14970221,3.76923077 0.891015075,3.63369051 0.734388856,3.42620973 Z" id="Combined-Shape" fill="#31272F"></path>
                    <path d="M1.44230769,0.269230769 L3.75,0.807692308" id="Path-4" stroke="#31272F" stroke-linecap="round"></path>
                </g>
                <path d="M25.0048027,31 L32.2163412,31 C32.2163412,31 32.5048027,34.2307692 28.6105719,34.2307692 C24.7163412,34.2307692 25.0048027,31 25.0048027,31 Z" id="Path-15" fill="#31272F" transform="translate(28.610572, 32.615385) rotate(7.000000) translate(-28.610572, -32.615385) "></path>
                <path d="M6.24073767,106.842634 C5.24073767,106.842634 7.24073767,95.842634 9.74073767,87.342634 C12.2407377,78.842634 14.7407377,75.842634 15.2407377,76.342634 C15.7407377,76.842634 15.071524,75.342634 11.2407377,88.342634 C7.40995135,101.342634 7.24073767,106.842634 6.24073767,106.842634 Z" id="Path-56" stroke="#247505" stroke-width="0.5" fill="#B6F37B" transform="translate(10.681666, 91.566202) rotate(-12.000000) translate(-10.681666, -91.566202) "></path>
                <path d="M28.1680009,85.6228585 C27.1680009,85.6228585 29.1680009,74.6228585 31.6680009,66.1228585 C34.1680009,57.6228585 36.6680009,54.6228585 37.1680009,55.1228585 C37.6680009,55.6228585 36.9987872,54.1228585 33.1680009,67.1228585 C29.3372145,80.1228585 29.1680009,85.6228585 28.1680009,85.6228585 Z" id="Path-56-Copy" stroke="#247505" stroke-width="0.5" fill="#B6F37B" transform="translate(32.608929, 70.346426) scale(-1, 1) rotate(-28.000000) translate(-32.608929, -70.346426) "></path>
                <path d="M12.8783712,60.9857621 C11.8783712,60.9857621 13.8783712,49.9857621 16.3783712,41.4857621 C18.8783712,32.9857621 20.5400151,29.6330524 21.0400151,30.1330524 C21.5400151,30.6330524 21.7091575,29.4857621 17.8783712,42.4857621 C14.0475848,55.4857621 13.8783712,60.9857621 12.8783712,60.9857621 Z" id="Path-56-Copy-2" stroke="#247505" stroke-width="0.5" fill="#B6F37B" transform="translate(16.958723, 45.535248) rotate(-2.000000) translate(-16.958723, -45.535248) "></path>
            </g>
            <path d="M32,45 C32,45 26,48.5 26,50.5 C26,52.5 30.5,57 30.5,57" id="Path-57" stroke="#31272F" stroke-width="2" stroke-linecap="round" stroke-linejoin="round"></path>
        </g>
    </g>
</svg>