<?xml version="1.0" encoding="UTF-8"?>
<svg width="293px" height="109px" viewBox="0 0 293 109" version="1.1" xmlns="http://www.w3.org/2000/svg" xmlns:xlink="http://www.w3.org/1999/xlink">
    <!-- Generator: Sketch 42 (36781) - http://www.bohemiancoding.com/sketch -->
    <title>DescriptionBox</title>
    <desc>Created with Sketch.</desc>
    <defs>
        <linearGradient x1="50%" y1="136.846677%" x2="50%" y2="0%" id="linearGradient-1">
            <stop stop-color="#FDA529" offset="0%"></stop>
            <stop stop-color="#6D3C24" offset="44.6507804%"></stop>
            <stop stop-color="#402820" offset="100%"></stop>
        </linearGradient>
        <path d="M2.89919682,6.21578833 C4.67660876,6.46706735 5.03482208,4.95083769 5.03482208,3.3365072 C5.03482208,1.72217671 3.99819963,0.413503281 2.71946104,0.413503281 C1.44072244,0.413503281 0.404099989,1.72217671 0.404099989,3.3365072 C0.404099989,4.95083769 1.12178488,5.96450931 2.89919682,6.21578833 Z" id="path-2"></path>
        <mask id="mask-4" maskContentUnits="userSpaceOnUse" maskUnits="objectBoundingBox" x="-1" y="-1" width="6.63072209" height="7.82970947">
            <rect x="-0.595900011" y="-0.586496719" width="6.63072209" height="7.82970947" fill="white"></rect>
            <use xlink:href="#path-2" fill="black"></use>
        </mask>
        <path d="M14.747692,4.89275802 C5.28655443,9.48726594 10.0591924,26.7508976 10.0591924,26.7508976 C10.0591924,26.7508976 -1.39156631,36.8183394 0.141212413,46.3415952 C1.67399113,55.864851 23.4935471,80.5346185 25.0263258,77.6322929 C26.5591045,74.7299673 32.7803828,50.3322929 23.0427298,37.2718278 C10.0591924,33.9209302 20.0162868,22.4023256 23.7129885,28.1162791 C24.1984879,24.1243356 22.682076,21.8532231 25.1164892,20.220665 C27.5509025,18.5881069 25.7476334,11.9671766 27.7312294,12.8741534 C29.7148254,13.7811301 43.0590166,19.8578743 50.9934006,16.6834557 C58.9277846,13.5090371 57.3950058,29.4718278 57.3950058,29.4718278 C57.3950058,29.4718278 46.5753913,68.4718278 50.1819295,71.464851 C50.1819295,63.664851 53.7884677,52.4183394 59.6490922,37.2718278 C63.0753035,25.8439208 59.397605,14.5538685 50.9934006,7.4322929 C34.403325,-6.62584664 28.0017198,3.44159523 23.0427298,4.16717662 C18.0837398,4.89275802 17.3624322,3.62299057 14.747692,4.89275802 Z" id="path-5"></path>
        <filter x="-50%" y="-50%" width="200%" height="200%" filterUnits="objectBoundingBox" id="filter-6">
            <feMorphology radius="0.5" operator="dilate" in="SourceAlpha" result="shadowSpreadOuter1"></feMorphology>
            <feOffset dx="0" dy="2" in="shadowSpreadOuter1" result="shadowOffsetOuter1"></feOffset>
            <feGaussianBlur stdDeviation="2" in="shadowOffsetOuter1" result="shadowBlurOuter1"></feGaussianBlur>
            <feComposite in="shadowBlurOuter1" in2="SourceAlpha" operator="out" result="shadowBlurOuter1"></feComposite>
            <feColorMatrix values="0 0 0 0 0   0 0 0 0 0   0 0 0 0 0  0 0 0 0.5 0" type="matrix" in="shadowBlurOuter1"></feColorMatrix>
        </filter>
        <path d="M0.682193138,0.0857812717 L6.99363493,0.0857812717 C6.99363493,0.0857812717 8.24529655,3.15137208 6.72314457,3.8950836 C5.20099259,4.63879511 2.3037305,4.17932592 0.862520047,3.35089755 C-0.578690405,2.52246918 0.682193138,0.0857812717 0.682193138,0.0857812717 Z" id="path-7"></path>
    </defs>
    <g id="Symbols" stroke="none" stroke-width="1" fill="none" fill-rule="evenodd">
        <g id="Credits">
            <g id="DescriptionBox">
                <rect id="Rectangle-2" fill="#FFFFFF" x="0" y="0" width="293" height="109" rx="23"></rect>
                <g id="Group" transform="translate(11.000000, 16.000000)">
                    <ellipse id="Oval" fill="#FBFBFC" cx="36" cy="38.2844037" rx="36" ry="36.1376147"></ellipse>
                    <g id="fede" transform="translate(5.702970, 0.000000)">
                        <polygon id="Path-36" stroke="#503013" fill="url(#linearGradient-1)" points="50.3112075 71.7418605 21.2785752 61.7651163 17.4015467 15.2372093 35.4342375 6.89302326 55.2701974 15.055814 59.2373894 22.9465116 58.5160818 32.3790698 54.3685629 48.0697674 51.7538227 57.6837209 50.221044 66.1186047"></polygon>
                        <path d="M22.2494332,37.2188523 C22.0661525,37.124045 21.8846936,37.0262523 21.7051223,36.9255393 C20.9833314,37.2648501 20.1852809,37.4532231 19.3460282,37.4532231 C16.1092946,37.4532231 13.4854036,34.6513586 13.4854036,31.1950836 C13.4854036,30.2639952 13.675823,29.3803983 14.0173455,28.5862757 C12.9805355,26.3111981 12.4034422,23.786211 12.4034422,21.1276417 C12.4034422,11.1094533 20.5980555,2.98810685 30.7066234,2.98810685 C40.8151912,2.98810685 49.0098046,11.1094533 49.0098046,21.1276417 C49.0098046,21.9882992 48.9493247,22.8349572 48.8323473,23.6636689 C48.930444,23.8677309 49.0267397,24.0736818 49.121178,24.2814799 C49.4622128,25.0318787 49.7790267,25.8063668 50.0689703,26.6029804 C54.0805904,37.624816 47.9530727,50.0326854 44.1471314,51.3589159 C41.8562067,52.1572189 35.8692696,50.9386489 30.5909719,47.4381995 C30.7190879,49.6907839 31.1009895,53.361552 32.2394021,55.2299673 C33.6627316,57.5660013 36.0819094,59.5263796 36.8596042,60.1227454 C37.1134692,60.0992444 37.2108716,60.1692688 37.0705729,60.3881803 C35.6850762,62.550006 32.8474762,64.3586479 29.3467719,65.0391159 C26.3883449,65.6141758 23.5671829,65.2647745 21.5000362,64.2462118 C21.4748786,64.2338156 21.4524012,64.2203529 21.4325334,64.2058686 L21.4197876,64.2090371 L21.4203276,64.196582 C21.2660273,64.0740034 21.287034,63.8830372 21.4440851,63.6486305 L22.5549844,38.0263775 C22.4742656,37.8275749 22.3968242,37.6264701 22.3227873,37.4230554 C22.2980302,37.3550358 22.2735792,37.2869672 22.2494332,37.2188523 Z" id="Combined-Shape" stroke="#DD8C57" fill="#F4DBCB"></path>
                        <g id="Group-11" transform="translate(45.442381, 26.302326)">
                            <mask id="mask-3" fill="white">
                                <use xlink:href="#path-2"></use>
                            </mask>
                            <g id="Oval-23" transform="translate(2.719461, 3.328358) rotate(-8.000000) translate(-2.719461, -3.328358) ">
                                <use fill="#FEFDF9" fill-rule="evenodd" xlink:href="#path-2"></use>
                                <use stroke="#F6C6A7" mask="url(#mask-4)" stroke-width="2" xlink:href="#path-2"></use>
                            </g>
                            <path d="M3.47726022,6.25322313 C4.32379053,6.25322313 5.01003894,5.68472888 5.01003894,4.98345569 C5.01003894,4.2821825 5.55101967,3.71368825 4.01824094,3.71368825 C2.48546222,3.71368825 1.9444815,4.2821825 1.9444815,4.98345569 C1.9444815,5.68472888 2.63072991,6.25322313 3.47726022,6.25322313 Z" id="Oval-24" fill="#31272F" mask="url(#mask-3)"></path>
                        </g>
                        <g id="Path-35">
                            <use fill="black" fill-opacity="1" filter="url(#filter-6)" xlink:href="#path-5"></use>
                            <use stroke="#502F12" stroke-width="1" fill="url(#linearGradient-1)" fill-rule="evenodd" xlink:href="#path-5"></use>
                        </g>
                        <path d="M38.5508439,41.0811301 C38.5508439,41.0811301 40.8950937,41.5346185 42.8786897,41.0811301 C44.8622857,40.6276417 46.0344106,41.0811301 46.0344106,41.0811301 C46.0344106,41.0811301 44.4114684,41.7160138 43.8704877,42.4415952" id="Path-37" stroke="#DD8C57" stroke-linecap="round"></path>
                        <path d="M45.9442472,41.0811301 C45.9442472,41.0811301 44.5016319,40.8997348 43.6901608,39.5392696 C42.8786897,38.1788045 43.2393435,35.6392696 43.2393435,35.6392696 C43.2393435,35.6392696 43.8704877,37.0904324 45.6737568,37.3625255 C47.4770259,37.6346185 48.5589873,36.1834557 48.5589873,36.1834557 C48.5589873,36.1834557 46.3769133,34.316732 45.6737568,32.6462464 C44.9706003,30.9757608 44.2311415,26.4788045 44.2311415,26.4788045" id="Path-38" stroke="#DD8C57" stroke-linecap="round"></path>
                        <path d="M30.9771138,28.1113627 C30.9771138,28.1113627 31.9689118,28.9276417 35.1697144,28.9276417 C38.370517,28.9276417 39.6328054,28.4741534 39.6328054,28.4741534" id="Path-39" stroke="#F6C6A7" stroke-width="3" stroke-linecap="round"></path>
                        <path d="M37.8295363,26.6601999 C37.8295363,26.6601999 38.1268143,27.3715541 38.370517,27.7032231 C38.6142197,28.0348922 39.2721515,28.6555487 39.2721515,28.6555487" id="Path-40" stroke="#F6C6A7" stroke-width="2" stroke-linecap="round"></path>
                        <g id="Group-12" transform="translate(31.557209, 28.660465)">
                            <mask id="mask-8" fill="white">
                                <use xlink:href="#path-7"></use>
                            </mask>
                            <use id="Rectangle-6" stroke="#F6C6A7" stroke-linecap="round" stroke-linejoin="round" fill="#FFFFFF" xlink:href="#path-7"></use>
                            <ellipse id="Oval-22" fill="#31272F" mask="url(#mask-8)" cx="5.10020239" cy="2.8067115" rx="2.07375945" ry="1.26976744"></ellipse>
                        </g>
                        <path d="M41.2533286,25.9733033 C41.6075711,25.7611731 42.160084,25.4811301 42.6081993,25.4811301 C43.0443726,25.4811301 43.5794532,25.4811301 43.9343322,25.4811301 C43.9916405,24.9216742 44.0508146,24.5741534 44.0508146,24.5741534 C44.0508146,24.5741534 51.9168045,20.8585237 54.2379434,23.1400197 C56.5590823,25.4215158 54.718179,31.980817 53.837747,32.836378 C52.957315,33.6919391 47.674723,35.1178741 45.353584,32.836378 C43.6193734,31.1317861 43.7493261,27.3622274 43.9259306,25.56486 L41.2748883,26.126281 C41.5537037,28.155214 41.8299738,32.2213766 39.9032957,33.8253162 C37.2885555,36.0020603 31.3377676,34.6415952 30.3459696,33.8253162 C29.3541716,33.0090371 27.2804121,26.7508976 29.8951523,24.5741534 C32.5098925,22.3974092 41.0754206,24.9369441 41.0754206,24.9369441 C41.0754206,24.9369441 41.1613968,25.3369401 41.2533286,25.9733033 Z M28.6328639,26.7508976 L22.4115856,27.2950836 C22.4115856,27.2950836 24.5225351,26.9290398 25.5222248,26.8415952 C26.5219144,26.7541506 28.6328639,26.7508976 28.6328639,26.7508976 Z" id="Combined-Shape" stroke="#7E4818" stroke-width="2"></path>
                    </g>
                </g>
            </g>
        </g>
    </g>
</svg>