<?xml version="1.0" encoding="UTF-8"?>
<svg width="91px" height="128px" viewBox="0 0 91 128" version="1.1" xmlns="http://www.w3.org/2000/svg" xmlns:xlink="http://www.w3.org/1999/xlink">
    <!-- Generator: Sketch 42 (36781) - http://www.bohemiancoding.com/sketch -->
    <title>Lemon</title>
    <desc>Created with Sketch.</desc>
    <defs>
        <path d="M4.0394644,71.9073016 C-2.16922194,60.1309432 -0.858387818,42.8506015 8.60827417,27.7007755 C18.4129822,12.0099626 34.1069639,3.18058237 47.7568238,4.29547141 C47.8003123,4.23222885 47.8447267,4.16939577 47.8900701,4.10698598 C51.143066,-0.370378746 57.9455465,-0.973655155 63.0838356,2.7595304 C67.7126881,6.12258859 69.4119183,11.8575983 67.3251611,16.2350456 C74.6184992,28.0029507 73.6656916,46.2473384 63.7314004,62.1455277 C53.4730779,78.5622754 36.7679421,87.4680161 22.7022317,85.33193 C22.6362125,85.4309576 22.5679596,85.5290138 22.497461,85.6260468 C19.2444651,90.1034115 12.4419845,90.7066879 7.30369544,86.9735024 C2.16540633,83.2403168 0.637074202,76.5843507 3.89007009,72.106986 C3.93906881,72.039545 3.98887286,71.972983 4.0394644,71.9073016 Z" id="path-1"></path>
        <mask id="mask-3" maskContentUnits="userSpaceOnUse" maskUnits="objectBoundingBox" x="-2" y="-2" width="75.8630127" height="93.1111372">
            <rect x="-1.76166908" y="-1.6890522" width="75.8630127" height="93.1111372" fill="white"></rect>
            <use xlink:href="#path-1" fill="black"></use>
        </mask>
    </defs>
    <g id="Page-1" stroke="none" stroke-width="1" fill="none" fill-rule="evenodd">
        <g id="Lemon" transform="translate(1.000000, -8.000000)">
            <polyline id="Path-2" stroke="#31272F" stroke-width="2" stroke-linecap="round" points="5.5 62.5 7 59.5 4 56"></polyline>
            <path d="M3.71533986,62.905952 C2.75612744,64.0282911 1.58472802,66.3444115 0.696961367,69.0194944 C-0.555686714,72.7940644 -0.0738157837,75.853958 1.77325021,75.853958 C3.62031621,75.853958 5.43766312,72.7940644 5.83240814,69.0194944 C6.00301013,67.3881903 6.0098761,65.8903749 5.88281934,64.7153633 C8.12713931,62.3040333 12.0299257,50.8952844 15.1820747,37.1850308 C18.7374245,21.7210578 23,7.18503076 12.1196049,9.18503076 C1.23920987,11.1850308 2.36259837,21.7210578 2.0455647,37.1850308 C1.80924498,48.712014 2.5109185,58.6121297 3.71533986,62.905952 Z" id="Combined-Shape" stroke="#AF8030" fill="#E6C895"></path>
            <path d="M33,110 C33,110 31,114.5 31,119.5 C31,124.5 34.5,128 34.5,128 L30,131.5" id="Path-6-Copy" stroke="#31272F" stroke-width="2" stroke-linecap="round" transform="translate(32.250000, 120.750000) rotate(15.000000) translate(-32.250000, -120.750000) "></path>
            <g id="body" transform="translate(11.000000, 33.000000)">
                <mask id="mask-2" fill="white">
                    <use xlink:href="#path-1"></use>
                </mask>
                <g id="Combined-Shape">
                    <use fill="#F8E81C" fill-rule="evenodd" xlink:href="#path-1"></use>
                    <use stroke="#F6C923" mask="url(#mask-3)" stroke-width="4" xlink:href="#path-1"></use>
                </g>
                <path d="M58,9.5 C58,9.5 68.4972155,41.9843725 60,57 C51.5027845,72.0156275 46,78.5 22.5,82 C17.5,86.5 7,86.5 4.5,83.5 C2,80.5 2.5,92.5 2.5,92.5 L69,94.5 L80.5,19 L58,9.5 Z" id="Path-7" fill="#FF9F00" opacity="0.316293025" mask="url(#mask-2)"></path>
            </g>
            <g id="EYE" transform="translate(54.000000, 55.000000)">
                <circle id="Oval-5" stroke="#31272F" stroke-width="0.5" fill="#FEFDF9" cx="3.5" cy="10.5" r="3.5"></circle>
                <path d="M1.27294068,9.36296092 C1.09843838,9.70406613 1,10.0905373 1,10.5 C1,11.8807119 2.11928813,13 3.5,13 C4.88071187,13 6,11.8807119 6,10.5 C6,9.26484827 5.10427149,8.23890515 3.92695872,8.03631487 C3.97437403,8.18233355 4,8.33817414 4,8.5 C4,9.32842712 3.32842712,10 2.5,10 C1.99281716,10 1.54442613,9.74828238 1.27294068,9.36296092 Z" id="Combined-Shape" fill="#31272F"></path>
                <path d="M0.5,2.5 L4,0" id="Path-3" stroke="#31272F" stroke-linecap="round"></path>
            </g>
            <g id="EYE-2" transform="translate(35.000000, 55.000000)">
                <circle id="Oval-5" stroke="#31272F" stroke-width="0.5" fill="#FEFDF9" cx="3.5" cy="10.5" r="3.5"></circle>
                <path d="M1.27294068,9.36296092 C1.09843838,9.70406613 1,10.0905373 1,10.5 C1,11.8807119 2.11928813,13 3.5,13 C4.88071187,13 6,11.8807119 6,10.5 C6,9.26484827 5.10427149,8.23890515 3.92695872,8.03631487 C3.97437403,8.18233355 4,8.33817414 4,8.5 C4,9.32842712 3.32842712,10 2.5,10 C1.99281716,10 1.54442613,9.74828238 1.27294068,9.36296092 Z" id="Combined-Shape" fill="#31272F"></path>
                <path d="M1.5,0.5 L5.5,3" id="Path-4" stroke="#31272F" stroke-linecap="round"></path>
            </g>
            <path d="M51,84 C51,84 53.3198655,85.0900673 55.5,84 C57.6801345,82.9099327 58,80.5 58,80.5" id="mouth" stroke="#31272F" stroke-linecap="round" stroke-linejoin="round"></path>
            <polyline id="arm" stroke="#31272F" stroke-width="2" stroke-linecap="round" stroke-linejoin="round" points="68 89.5 62 101.5 55.5 102.5"></polyline>
            <path d="M56,110 C56,110 54,114.5 54,119.5 C54,124.5 57.5,128 57.5,128 L53,131.5" id="Path-6" stroke="#31272F" stroke-width="2" stroke-linecap="round"></path>
            <g id="Group" transform="translate(2.000000, 63.000000)" stroke="#31272F" stroke-width="2" stroke-linecap="round">
                <path d="M11,18.5 C11,18.5 7,16 5.5,12.5 C4,9 3.5,3 3.5,3 L0,0.5" id="Path-5"></path>
            </g>
            <g id="Group-2" transform="translate(14.000000, 0.000000)" stroke="#417505">
                <path d="M65.0540623,80.4881834 C65.0540623,80.4881834 73.4147416,66.5480067 73.4147416,53.8425083 C73.4147416,41.1370098 69.609162,30.8371683 64.9147416,30.8371683 C60.2203213,30.8371683 56.4147416,41.1370098 56.4147416,53.8425083 C56.4147416,66.5480067 65.0540623,80.4881834 65.0540623,80.4881834 Z" id="Oval-8" fill="#BAD283" transform="translate(64.914742, 55.662676) rotate(-24.000000) translate(-64.914742, -55.662676) "></path>
                <path d="M26.8827345,63.3730996 C26.8827345,63.3730996 38.3822189,48.6347608 38.3822189,35.2017932 C38.3822189,21.7688256 33.1479309,10.8792538 26.6911095,10.8792538 C20.234288,10.8792538 15,21.7688256 15,35.2017932 C15,48.6347608 26.8827345,63.3730996 26.8827345,63.3730996 Z" id="Oval-8-Copy" fill="#BAD283" transform="translate(26.691109, 37.126177) rotate(92.000000) translate(-26.691109, -37.126177) "></path>
                <path d="M33.5082279,45.6140919 C33.5082279,45.6140919 46.2292286,33.368861 46.2292286,22.2081873 C46.2292286,11.0475136 40.4389359,2 33.2962478,2 C26.1535597,2 20.363267,11.0475136 20.363267,22.2081873 C20.363267,33.368861 33.5082279,45.6140919 33.5082279,45.6140919 Z" id="Oval-8-Copy-2" fill="#85A966" transform="translate(33.296248, 23.807046) rotate(126.000000) translate(-33.296248, -23.807046) "></path>
            </g>
            <ellipse id="Oval-9" fill-opacity="0.463654891" fill="#24262A" cx="45" cy="134" rx="43" ry="2"></ellipse>
        </g>
    </g>
</svg>