<?xml version="1.0" encoding="UTF-8"?>
<svg width="140px" height="111px" viewBox="0 0 140 111" version="1.1" xmlns="http://www.w3.org/2000/svg" xmlns:xlink="http://www.w3.org/1999/xlink">
    <!-- Generator: Sketch 42 (36781) - http://www.bohemiancoding.com/sketch -->
    <title>Onion</title>
    <desc>Created with Sketch.</desc>
    <defs>
        <path d="M33.5,3.5 C33.5,1.56700338 36.0670034,0 38,0 C38.8737046,0 39.7747867,0.320137821 40.5,0.849509453 C41.2252133,0.320137821 42.1262954,0 43,0 C44.3522718,0 45.7701269,0.766894731 46.5,1.88949149 C47.2298731,0.766894731 48.6477282,0 50,0 C50.8737046,0 51.7747867,0.320137821 52.5,0.849509453 C53.2252133,0.320137821 54.1262954,0 55,0 C56.9329966,0 59.5,1.56700338 59.5,3.5 C59.5,3.5 55.7710115,10.1106361 54.5,13.5 C53.2289885,16.8893639 53.5,19.5 53.5,19.5 L39.5,19.5 C39.5,19.5 39.1464203,15.2237875 38.5,13.5 C37.8535797,11.7762125 33.5,3.5 33.5,3.5 Z" id="path-1"></path>
        <mask id="mask-2" maskContentUnits="userSpaceOnUse" maskUnits="objectBoundingBox" x="-2" y="-2" width="30" height="23.5">
            <rect x="31.5" y="-2" width="30" height="23.5" fill="white"></rect>
            <use xlink:href="#path-1" fill="black"></use>
        </mask>
        <path d="M46.5,100 C45,101.5 52.3820089,97.9611389 55.8948594,96.7751145 C73,91 90.5,76.4434857 90.5,57.5 C90.5,35.1324676 70.1812409,17 44.5,17 C18.8187591,17 0,40 0,57.5 C1.38294676e-15,78.3044814 20,94 39.1929712,97.7391188 C40.9051977,98.0726898 47.6942741,98.8057259 46.5,100 Z" id="path-3"></path>
        <mask id="mask-4" maskContentUnits="userSpaceOnUse" maskUnits="objectBoundingBox" x="-2" y="-2" width="94.5" height="87.3644462">
            <rect x="-2" y="15" width="94.5" height="87.3644462" fill="white"></rect>
            <use xlink:href="#path-3" fill="black"></use>
        </mask>
        <path d="M46.5,91.5 C48.3340729,91.5 51.1605046,91.2338108 54.0717067,90.2509176 C68.2472376,85.4649111 82.75,73.4015015 82.75,57.7024802 C82.75,39.1658512 65.9112493,24.1389443 44.628453,24.1389443 C23.3456567,24.1389443 7.75,43.1997178 7.75,57.7024802 C7.75,74.9437631 24.3245856,87.951099 40.2303629,91.0498163 C41.6493351,91.3262563 43.7140884,91.5 46.5,91.5 Z" id="path-5"></path>
        <mask id="mask-6" maskContentUnits="userSpaceOnUse" maskUnits="objectBoundingBox" x="-1" y="-1" width="77" height="69.3610557">
            <rect x="6.75" y="23.1389443" width="77" height="69.3610557" fill="white"></rect>
            <use xlink:href="#path-5" fill="black"></use>
        </mask>
        <path d="M46.1541667,82.1817206 C47.4808127,82.1817206 49.525265,81.9891771 51.6310345,81.2782177 C61.8846685,77.8163397 72.375,69.0904734 72.375,57.734848 C72.375,44.3266863 60.1949704,33.4572237 44.8004144,33.4572237 C29.4058584,33.4572237 18.125,47.2445165 18.125,57.734848 C18.125,70.2060426 30.1139503,79.6146822 41.6191291,81.8560877 C42.6455191,82.056046 44.1390239,82.1817206 46.1541667,82.1817206 Z" id="path-7"></path>
        <mask id="mask-8" maskContentUnits="userSpaceOnUse" maskUnits="objectBoundingBox" x="-1" y="-1" width="56.25" height="50.724497">
            <rect x="17.125" y="32.4572237" width="56.25" height="50.724497" fill="white"></rect>
            <use xlink:href="#path-7" fill="black"></use>
        </mask>
        <path d="M53.5238368,17.7655186 C53.6153454,16.6895814 53.8655746,15.191801 54.5,13.5 C55.7710115,10.1106361 59.5,3.5 59.5,3.5 C59.5,1.56700338 56.9329966,0 55,0 C54.1262954,0 53.2252133,0.320137821 52.5,0.849509453 C51.7747867,0.320137821 50.8737046,0 50,0 C48.6477282,0 47.2298731,0.766894731 46.5,1.88949149 C45.7701269,0.766894731 44.3522718,0 43,0 C42.1262954,0 41.2252133,0.320137821 40.5,0.849509453 C39.7747867,0.320137821 38.8737046,0 38,0 C36.0670034,0 33.5,1.56700338 33.5,3.5 C33.5,3.5 37.8535797,11.7762125 38.5,13.5 C38.8380328,14.4014209 39.0959866,16.0008183 39.2651757,17.3217067 C16.3015448,20.1604968 0,41.2124059 0,57.5 C1.38294676e-15,78.3044814 20,94 39.1929712,97.7391188 C40.9051977,98.0726898 47.6942741,98.8057259 46.5,100 C45,101.5 52.3820089,97.9611389 55.8948594,96.7751145 C73,91 90.5,76.4434857 90.5,57.5 C90.5,37.8277031 74.782945,21.4313319 53.5238368,17.7655186 Z" id="path-9"></path>
        <mask id="mask-11" maskContentUnits="userSpaceOnUse" maskUnits="objectBoundingBox" x="-2" y="-2" width="94.5" height="104.364446">
            <rect x="-2" y="-2" width="94.5" height="104.364446" fill="white"></rect>
            <use xlink:href="#path-9" fill="black"></use>
        </mask>
    </defs>
    <g id="Page-1" stroke="none" stroke-width="1" fill="none" fill-rule="evenodd">
        <g id="Onion" transform="translate(-24.000000, -11.000000)">
            <ellipse id="Oval-9" fill-opacity="0.463654891" fill="#24262A" cx="98" cy="114" rx="43" ry="2"></ellipse>
            <g id="OnionFace" transform="translate(120.104498, 63.867385) rotate(22.000000) translate(-120.104498, -63.867385) translate(74.604498, 13.367385)">
                <g id="Combined-Shape">
                    <use fill="#FFF4F4" fill-rule="evenodd" xlink:href="#path-1"></use>
                    <use stroke="#A78080" mask="url(#mask-2)" stroke-width="4" xlink:href="#path-1"></use>
                </g>
                <g id="Oval-17">
                    <use fill="#FFF4F4" fill-rule="evenodd" xlink:href="#path-3"></use>
                    <use stroke="#A78080" mask="url(#mask-4)" stroke-width="4" xlink:href="#path-3"></use>
                </g>
                <g id="Oval-17-Copy" opacity="0.57738904">
                    <use fill="#FFF4F4" fill-rule="evenodd" xlink:href="#path-5"></use>
                    <use stroke="#A78080" mask="url(#mask-6)" stroke-width="2" xlink:href="#path-5"></use>
                </g>
                <g id="Oval-17-Copy-2" opacity="0.57738904">
                    <use fill="#FFF4F4" fill-rule="evenodd" xlink:href="#path-7"></use>
                    <use stroke="#A78080" mask="url(#mask-8)" stroke-width="2" xlink:href="#path-7"></use>
                </g>
                <g id="Group-13" transform="translate(27.000000, 32.000000)">
                    <g id="EYE" transform="translate(35.564343, 11.264819) rotate(-360.000000) translate(-35.564343, -11.264819) translate(29.564343, 1.764819)">
                        <ellipse id="Oval-5" stroke="#31272F" stroke-width="0.5" fill="#FEFDF9" cx="4.55" cy="14.5454545" rx="4.55" ry="4.45454545"></ellipse>
                        <path d="M1.65482289,13.0983139 C1.42796989,13.5324478 1.3,14.0243202 1.3,14.5454545 C1.3,16.3027242 2.75507456,17.7272727 4.55,17.7272727 C6.34492544,17.7272727 7.8,16.3027242 7.8,14.5454545 C7.8,12.9734433 6.63555294,11.6676975 5.10504634,11.4098553 C5.16668624,11.5956973 5.2,11.7940398 5.2,12 C5.2,13.0543618 4.32695526,13.9090909 3.25,13.9090909 C2.59066231,13.9090909 2.00775397,13.588723 1.65482289,13.0983139 Z" id="Combined-Shape" fill="#31272F"></path>
                        <path d="M3.88013658,1.72487217 C3.88013658,1.72487217 5.05078697,3.00596812 7.11273477,3.89184158 C9.17468257,4.77771505 11.1198634,5.27160663 11.1198634,5.27160663" id="Path-3" stroke="#31272F" stroke-linecap="round" transform="translate(7.500000, 3.498239) rotate(-19.000000) translate(-7.500000, -3.498239) "></path>
                    </g>
                    <g id="EYE-Copy" transform="translate(5.076283, 9.936952) rotate(-360.000000) translate(-5.076283, -9.936952) translate(0.076283, 0.436952)">
                        <ellipse id="Oval-5" stroke="#31272F" stroke-width="0.5" fill="#FEFDF9" cx="4.55" cy="14.5454545" rx="4.55" ry="4.45454545"></ellipse>
                        <path d="M1.65482289,13.0983139 C1.42796989,13.5324478 1.3,14.0243202 1.3,14.5454545 C1.3,16.3027242 2.75507456,17.7272727 4.55,17.7272727 C6.34492544,17.7272727 7.8,16.3027242 7.8,14.5454545 C7.8,12.9734433 6.63555294,11.6676975 5.10504634,11.4098553 C5.16668624,11.5956973 5.2,11.7940398 5.2,12 C5.2,13.0543618 4.32695526,13.9090909 3.25,13.9090909 C2.59066231,13.9090909 2.00775397,13.588723 1.65482289,13.0983139 Z" id="Combined-Shape" fill="#31272F"></path>
                        <path d="M0.38013658,1.08189668 C0.38013658,1.08189668 1.55078697,2.36299263 3.61273477,3.24886609 C5.67468257,4.13473955 7.61986342,4.62863113 7.61986342,4.62863113" id="Path-3" stroke="#31272F" stroke-linecap="round" transform="translate(4.000000, 2.855264) scale(-1, 1) rotate(-19.000000) translate(-4.000000, -2.855264) "></path>
                    </g>
                    <path d="M13.4536577,32.5589319 C13.4536577,32.5589319 14.3286577,31.0354944 19.3286577,31.0354944 C24.3286577,31.0354944 25.2036577,32.5589319 25.2036577,32.5589319" id="Path-28" stroke="#31272F" stroke-linecap="round" stroke-linejoin="round" transform="translate(19.328658, 31.797213) scale(1, -1) translate(-19.328658, -31.797213) "></path>
                </g>
            </g>
            <g id="OnionBehind" transform="translate(67.470267, 72.963520) rotate(-41.000000) translate(-67.470267, -72.963520) translate(21.970267, 22.463520)">
                <mask id="mask-10" fill="white">
                    <use xlink:href="#path-9"></use>
                </mask>
                <g id="Combined-Shape">
                    <use fill="#F9DCDC" fill-rule="evenodd" xlink:href="#path-9"></use>
                    <use stroke="#A78080" mask="url(#mask-11)" stroke-width="4" xlink:href="#path-9"></use>
                </g>
                <path d="M87.6880109,-1 C87.2186202,-0.795917114 82.4389981,0.0426663025 82.6880109,4 C82.9370237,7.9573337 90.4808979,18.5465498 89.6880109,19 C88.3214235,19.7815481 45.1880109,30 53.1880109,63.5 C55.6028058,73.6119537 63.6880109,82.5 68.1880109,86.5 C72.6880109,90.5 91.6880109,99.5 91.6880109,101 C70.3652238,92.5 56.6880109,91.5 49.6880109,62.5 C43.4885881,36.8166769 62.8260814,25.1299457 78.1880109,19 C93.5499403,12.8700543 67.6880109,-2 87.6880109,-1 Z" id="Path-49-Copy-2" fill="#E2B8B8" mask="url(#mask-10)" transform="translate(70.094005, 49.975971) scale(-1, 1) translate(-70.094005, -49.975971) "></path>
                <path d="M46.5,31.5 C46.5,31.5 49.5,51.5 49.5,62 C49.5,72.5 47.5,99.5 47.5,99.5" id="Path-48" stroke="#A78080" stroke-linecap="round" mask="url(#mask-10)"></path>
                <path d="M34,28.5 C34,28.5 15,43.5 21,63.5 C23.8416755,72.9722516 34,82.5 38.5,86.5 C43,90.5 47,98.5 47,100 C40,84.5 22,84.5 17.5,62.5 C13,40.5 34,28.5 34,28.5 Z" id="Path-49" fill="#E2B8B8" mask="url(#mask-10)"></path>
                <path d="M63.6455742,28.5 C63.6455742,28.5 45.1455742,44 51.1455742,64 C53.9872497,73.4722516 64.1455742,83 68.6455742,87 C73.1455742,91 77.1455742,99 77.1455742,100.5 C70.1455742,85 52.1455742,85 47.6455742,63 C43.1455742,41 63.6455742,28.5 63.6455742,28.5 Z" id="Path-49-Copy" fill="#E2B8B8" mask="url(#mask-10)" transform="translate(62.072787, 64.500000) scale(-1, 1) translate(-62.072787, -64.500000) "></path>
                <path d="M64,28 C64,28 44,39.5 47,61 C50,82.5 68,85 77.5,100" id="Path-47-Copy" stroke="#A78080" stroke-linecap="round" mask="url(#mask-10)" transform="translate(62.096674, 64.000000) scale(-1, 1) translate(-62.096674, -64.000000) "></path>
                <path d="M34,28 C34,28 14,39.5 17,61 C20,82.5 38,85 47.5,100" id="Path-47" stroke="#A78080" stroke-linecap="round" mask="url(#mask-10)"></path>
            </g>
        </g>
    </g>
</svg>