<?xml version="1.0" encoding="UTF-8"?>
<svg width="119px" height="144px" viewBox="0 0 119 144" version="1.1" xmlns="http://www.w3.org/2000/svg" xmlns:xlink="http://www.w3.org/1999/xlink">
    <!-- Generator: Sketch 42 (36781) - http://www.bohemiancoding.com/sketch -->
    <title>Orange</title>
    <desc>Created with Sketch.</desc>
    <defs>
        <ellipse id="path-1" cx="56.5" cy="50.5" rx="56.5" ry="50.5"></ellipse>
        <mask id="mask-3" maskContentUnits="userSpaceOnUse" maskUnits="objectBoundingBox" x="-2" y="-2" width="117" height="105">
            <rect x="-2" y="-2" width="117" height="105" fill="white"></rect>
            <use xlink:href="#path-1" fill="black"></use>
        </mask>
    </defs>
    <g id="Page-1" stroke="none" stroke-width="1" fill="none" fill-rule="evenodd">
        <g id="Orange" transform="translate(2.000000, 1.000000)">
            <path d="M5,133.5 C6.15186355,135.342982 17.2582354,131.313 22,134 C26.7417646,136.687 -6.66245502,140.911737 20,142 C46.662455,143.088263 86.8799529,138.810934 95.5,137 C104.120047,135.189066 81.1231703,132.137652 79.5,129.5 C77.8768297,126.862348 96.0623831,124 87.5,124 C78.9376169,124 62.2303041,130.042959 53,129.5 C43.7696959,128.957041 53.8067669,122.845478 45,121.5 C36.1932331,120.154522 24.2031714,124.763973 17,124 C9.79682856,123.236027 3.84813645,131.657018 5,133.5 Z" id="Path-13" stroke="#F6A623" fill="#FFBA00"></path>
            <path d="M36.3281513,108.335977 C36.3281513,108.335977 36.7121259,111.00104 37.9334501,115.492061 C39.1547743,119.983081 42.7737286,123.875669 42.7737286,123.875669 L38.2737286,127.375669" id="Path-6-Copy-2" stroke="#31272F" stroke-width="2" stroke-linecap="round" transform="translate(39.550940, 117.855823) rotate(30.000000) translate(-39.550940, -117.855823) "></path>
            <g id="body" transform="translate(0.000000, 14.000000)">
                <mask id="mask-2" fill="white">
                    <use xlink:href="#path-1"></use>
                </mask>
                <g>
                    <use fill="#FF9500" fill-rule="evenodd" xlink:href="#path-1"></use>
                    <use stroke="#B86B00" mask="url(#mask-3)" stroke-width="4" xlink:href="#path-1"></use>
                </g>
                <circle id="Oval-10" fill="#FF7D00" mask="url(#mask-2)" cx="94" cy="71" r="3"></circle>
                <circle id="Oval-10-Copy" fill="#FF7D00" mask="url(#mask-2)" cx="95" cy="79" r="2"></circle>
                <circle id="Oval-10-Copy-2" fill="#FF7D00" mask="url(#mask-2)" cx="101.5" cy="70.5" r="1.5"></circle>
                <circle id="Oval-10-Copy-3" fill="#FF7D00" mask="url(#mask-2)" cx="84.5" cy="77.5" r="4.5"></circle>
                <circle id="Oval-10-Copy-4" fill="#FF7D00" mask="url(#mask-2)" cx="83.5" cy="89.5" r="2.5"></circle>
                <circle id="Oval-10-Copy-5" fill="#FF7D00" mask="url(#mask-2)" cx="90.5" cy="83.5" r="1.5"></circle>
                <circle id="Oval-10-Copy-6" fill="#FF7D00" mask="url(#mask-2)" cx="78" cy="84" r="3"></circle>
                <path d="M37.8980727,38 C37.8980727,38 32.320112,40.3914898 31.3980727,46.5 C30.4760334,52.6085102 35.7296271,54.7317096 33.8980727,64.5 C32.0665182,74.2682904 26.8407458,71.1835864 25.3980727,78.5 C23.9553996,85.8164136 26.8980727,100 26.8980727,100 L34.8980727,101 C34.8980727,101 30.9293429,91.4178751 33.3980727,80 C35.8668024,68.5821249 41.8743802,69.9560291 42.8980727,64 C43.9217652,58.0439709 38.5243377,54.4780729 38.8980727,48 C39.2718077,41.5219271 44.3980727,38 44.3980727,38 L37.8980727,38 Z" id="Path-9" fill="#FFCC00" opacity="0.687669837" mask="url(#mask-2)"></path>
                <path d="M73.8980727,37 C73.8980727,37 68.320112,39.3914898 67.3980727,45.5 C66.4760334,51.6085102 71.7296271,53.7317096 69.8980727,63.5 C68.0665182,73.2682904 62.8407458,70.1835864 61.3980727,77.5 C59.9553996,84.8164136 62.8980727,99 62.8980727,99 L70.8980727,100 C70.8980727,100 66.9293429,90.4178751 69.3980727,79 C71.8668024,67.5821249 77.8743802,68.9560291 78.8980727,63 C79.9217652,57.0439709 74.5243377,53.4780729 74.8980727,47 C75.2718077,40.5219271 80.3980727,37 80.3980727,37 L73.8980727,37 Z" id="Path-9-Copy" fill="#FFCC00" opacity="0.687669837" mask="url(#mask-2)" transform="translate(70.699036, 68.500000) scale(-1, 1) translate(-70.699036, -68.500000) "></path>
                <path d="M80,2 C80,2 115.5,28.5 103.5,67 C91.5,105.5 22,93 22,93 L69,111 L134.5,55.5 L94,-0.5 L80,2 Z" id="Path-12" fill-opacity="0.475288723" fill="#FF7D00" mask="url(#mask-2)"></path>
            </g>
            <path d="M68.3281513,108.335977 C68.3281513,108.335977 68.7121259,111.00104 69.9334501,115.492061 C71.1547743,119.983081 74.7737286,123.875669 74.7737286,123.875669 L70.2737286,127.375669" id="Path-6" stroke="#31272F" stroke-width="2" stroke-linecap="round" transform="translate(71.550940, 117.855823) rotate(30.000000) translate(-71.550940, -117.855823) "></path>
            <g id="EYE" transform="translate(67.000000, 45.000000) rotate(-360.000000) translate(-67.000000, -45.000000) translate(61.000000, 37.000000)">
                <ellipse id="Oval-5" stroke="#31272F" stroke-width="0.5" fill="#FEFDF9" cx="4.55" cy="11.5454545" rx="4.55" ry="4.45454545"></ellipse>
                <path d="M1.65482289,10.0983139 C1.42796989,10.5324478 1.3,11.0243202 1.3,11.5454545 C1.3,13.3027242 2.75507456,14.7272727 4.55,14.7272727 C6.34492544,14.7272727 7.8,13.3027242 7.8,11.5454545 C7.8,9.97344326 6.63555294,8.66769746 5.10504634,8.40985529 C5.16668624,8.59569725 5.2,8.79403982 5.2,9 C5.2,10.0543618 4.32695526,10.9090909 3.25,10.9090909 C2.59066231,10.9090909 2.00775397,10.588723 1.65482289,10.0983139 Z" id="Combined-Shape" fill="#31272F"></path>
                <path d="M5.5,0.5 C5.5,0.5 6.46833493,2.79639075 7.5,4 C8.53166507,5.20360925 11.5,7.5 11.5,7.5" id="Path-3" stroke="#31272F" stroke-linecap="round"></path>
            </g>
            <g id="EYE-Copy" transform="translate(39.500000, 46.500000) rotate(-360.000000) translate(-39.500000, -46.500000) translate(32.000000, 39.000000)">
                <ellipse id="Oval-5" stroke="#31272F" stroke-width="0.5" fill="#FEFDF9" cx="9.55" cy="9.54545455" rx="4.55" ry="4.45454545"></ellipse>
                <path d="M6.65482289,8.0983139 C6.42796989,8.5324478 6.3,9.02432021 6.3,9.54545455 C6.3,11.3027242 7.75507456,12.7272727 9.55,12.7272727 C11.3449254,12.7272727 12.8,11.3027242 12.8,9.54545455 C12.8,7.97344326 11.6355529,6.66769746 10.1050463,6.40985529 C10.1666862,6.59569725 10.2,6.79403982 10.2,7 C10.2,8.0543618 9.32695526,8.90909091 8.25,8.90909091 C7.59066231,8.90909091 7.00775397,8.58872303 6.65482289,8.0983139 Z" id="Combined-Shape" fill="#31272F"></path>
                <path d="M0.922274454,0.222607209 C0.922274454,0.222607209 1.89060938,2.51899796 2.92227445,3.72260721 C3.95393953,4.92621646 6.92227445,7.22260721 6.92227445,7.22260721" id="Path-3" stroke="#31272F" stroke-linecap="round" transform="translate(3.922274, 3.722607) rotate(-91.000000) translate(-3.922274, -3.722607) "></path>
            </g>
            <path d="M48.5,69.5 L55,69.5 C55,69.5 55.75,64.5 51.75,64.5 C47.75,64.5 48.5,69.5 48.5,69.5 Z" id="Path-8" fill="#31272F"></path>
            <path d="M56.0661157,21.4625985 C56.0661157,21.4625985 53.5661157,7.46259855 54.0661157,4.46259855 C54.5661157,1.46259855 61.0661157,-2.03740145 61.5661157,1.46259855 C62.0661157,4.96259855 61.5661157,21.9625985 61.5661157,21.9625985 L59.5661157,23.4625985 L56.0661157,21.4625985 Z" id="Path-11" stroke="#8B572A" fill="#91754C"></path>
            <path d="M47,23 C47,23 53.5272564,21.4246303 56.5,22 C59.4727436,22.5753697 62.5,26 62.5,26 C62.5,26 59.5,23 61,22.5 C62.5,22 70.5,19 70.5,19" id="Path-10" stroke="#31272F" stroke-linecap="round" stroke-linejoin="round"></path>
            <path d="M109.5,61 C109.5,61 113.130346,70.5983147 114,75.5 C114.869654,80.4016853 115,92 115,92" id="Path-14" stroke="#31272F" stroke-width="3" stroke-linecap="round"></path>
            <path d="M0,61 C0,61 3.63034615,70.5983147 4.5,75.5 C5.36965385,80.4016853 5.5,92 5.5,92" id="Path-14-Copy" stroke="#31272F" stroke-width="3" stroke-linecap="round" transform="translate(2.750000, 76.500000) scale(-1, 1) translate(-2.750000, -76.500000) "></path>
        </g>
    </g>
</svg>