<?xml version="1.0" encoding="UTF-8"?>
<svg width="86px" height="132px" viewBox="0 0 86 132" version="1.1" xmlns="http://www.w3.org/2000/svg" xmlns:xlink="http://www.w3.org/1999/xlink">
    <!-- Generator: Sketch 42 (36781) - http://www.bohemiancoding.com/sketch -->
    <title>Pear</title>
    <desc>Created with Sketch.</desc>
    <defs>
        <path d="M2.56170452,58.9390762 C4.40877393,53.7188075 7.50820293,47.3088883 12.173913,39.4570313 C12.173913,17.6655146 23.0748061,0 36.5217391,0 C49.9686722,0 60.8695652,17.6655146 60.8695652,39.4570313 C63.4489405,43.3353018 65.558023,46.8482499 67.2481717,50.0292995 C71.2425437,57.5471561 72.897041,63.2112566 72.8895974,67.4627917 C72.9914345,68.4018077 73.0434783,69.3529953 73.0434783,70.3144531 C73.0434783,87.3565366 56.6921387,101.171875 36.5217391,101.171875 C16.3513396,101.171875 0,87.3565366 0,70.3144531 C0,66.2971207 0.908622509,62.4590943 2.56170452,58.9390762 Z" id="path-1"></path>
        <mask id="mask-3" maskContentUnits="userSpaceOnUse" maskUnits="objectBoundingBox" x="-2" y="-2" width="77.0434783" height="105.171875">
            <rect x="-2" y="-2" width="77.0434783" height="105.171875" fill="white"></rect>
            <use xlink:href="#path-1" fill="black"></use>
        </mask>
        <path d="M35.6736704,0.00472809383 C36.6160021,0.00472809383 37.6915599,0.00472809383 38.3478261,0.00472809383 C39.7173913,0.00472809383 39.7173913,1.09819448 39.7173913,1.09819448 L39.7173913,10.1192922 C39.7173913,10.1192922 37.0515089,10.9983244 35.6736704,10.939392 C34.295832,10.8804596 33.7826087,10.1192922 33.7826087,10.1192922 L33.7826087,1.09819448 C33.7826087,1.09819448 33.7826087,0.00472809383 35.6736704,0.00472809383 Z" id="path-4"></path>
        <mask id="mask-5" maskContentUnits="userSpaceOnUse" maskUnits="objectBoundingBox" x="0" y="0" width="5.93478261" height="10.9375" fill="white">
            <use xlink:href="#path-4"></use>
        </mask>
        <path d="M33.0813015,10.5356072 C33.0813015,10.5356072 20.987017,3.76505211 12.5378232,9.1684197 C4.08862945,14.5717873 3.86391016,29.220503 3.86391016,29.220503 C3.86391016,29.220503 11.7604355,31.7826752 20.7552145,26.0303989 C29.7499935,20.2781225 33.0813015,10.5356072 33.0813015,10.5356072 Z" id="path-6"></path>
        <mask id="mask-8" maskContentUnits="userSpaceOnUse" maskUnits="objectBoundingBox" x="-2" y="-2" width="33.2173913" height="26.7127491">
            <rect x="1.86391016" y="5.07647194" width="33.2173913" height="26.7127491" fill="white"></rect>
            <use xlink:href="#path-6" fill="black"></use>
        </mask>
    </defs>
    <g id="Page-1" stroke="none" stroke-width="1" fill="none" fill-rule="evenodd">
        <g id="Pear" transform="translate(2.000000, -1.000000)">
            <g id="Body" transform="translate(0.000000, 10.000000)">
                <ellipse id="Oval-9" fill-opacity="0.463654891" fill="#24262A" cx="38" cy="121" rx="38" ry="2"></ellipse>
                <g id="Group-9" transform="translate(36.588567, 112.087915) rotate(4.000000) translate(-36.588567, -112.087915) translate(20.088567, 102.087915)" stroke="#31272F" stroke-width="2" stroke-linecap="round">
                    <path d="M4.99941427,0.487351753 C4.99941427,0.487351753 3.92615485,4.22724805 3.92615485,8.78453972 C3.92615485,13.3418314 7.79819463,16.5921927 7.79819463,16.5921927 L3.68949897,19.7822969" id="Path-6-Copy" transform="translate(5.743847, 10.134824) rotate(22.000000) translate(-5.743847, -10.134824) "></path>
                    <path d="M25.5868946,0.715176908 C25.5868946,0.715176908 24.4301154,5.11389256 24.9369148,8.84164572 C25.4437142,12.5693989 28.9842551,16.3662145 28.9842551,16.3662145 L24.8755594,19.5563186" id="Path-6" transform="translate(26.896375, 10.135748) rotate(22.000000) translate(-26.896375, -10.135748) "></path>
                </g>
                <g id="Group-10" transform="translate(0.000000, 8.203125)">
                    <mask id="mask-2" fill="white">
                        <use xlink:href="#path-1"></use>
                    </mask>
                    <g id="Combined-Shape">
                        <use fill="#BEEBA0" fill-rule="evenodd" xlink:href="#path-1"></use>
                        <use stroke="#7ED321" mask="url(#mask-3)" stroke-width="4" xlink:href="#path-1"></use>
                    </g>
                    <path d="M36.5217391,0.455729167 C36.5217391,0.455729167 50.2173913,5.92447917 54.326087,25.5208333 C55.0990539,29.6490268 55.2391304,32.8125 53.8695652,39.6484375 C56.6086957,42.8385417 67.9464087,68.0524667 62.0869565,82.4869792 C54.767811,100.517384 26.0217391,99.3489583 26.0217391,99.3489583 L29.673913,107.096354 L71.2173913,94.3359375 L76.6956522,61.5234375 L64.826087,36.0026042 L52.5,0.455729167 L36.5217391,0.455729167 Z" id="Path-30" fill="#7ED321" opacity="0.812160326" mask="url(#mask-2)"></path>
                </g>
                <g id="arti" transform="translate(4.565217, 60.661458)" stroke="#31272F" stroke-width="2" stroke-linecap="round">
                    <path d="M1.82608696,0.40625 C1.82608696,0.40625 5.14075083,9.15471388 5.93478261,13.6223958 C6.72881439,18.0900778 1.50990331e-13,25.4713542 1.50990331e-13,25.4713542" id="Path-14-Copy" transform="translate(2.999955, 12.938802) scale(-1, 1) translate(-2.999955, -12.938802) "></path>
                </g>
                <use id="Rectangle-4" stroke="#8B572A" mask="url(#mask-5)" stroke-width="2" stroke-linejoin="round" fill="#D3950B" xlink:href="#path-4"></use>
                <g id="Group-13" transform="translate(20.086957, 21.786458)">
                    <g id="EYE" transform="translate(27.413043, 10.000000) rotate(-360.000000) translate(-27.413043, -10.000000) translate(21.913043, 1.000000)">
                        <ellipse id="Oval-5" stroke="#31272F" stroke-width="0.5" fill="#FEFDF9" cx="4.15434783" cy="13.2575758" rx="4.15434783" ry="4.06013258"></ellipse>
                        <path d="M1.51092525,11.9385674 C1.3037986,12.3342623 1.18695652,12.7825835 1.18695652,13.2575758 C1.18695652,14.8592538 2.51550286,16.1576705 4.15434783,16.1576705 C5.79319279,16.1576705 7.12173913,14.8592538 7.12173913,13.2575758 C7.12173913,11.824753 6.05854834,10.6346201 4.66112926,10.3996077 C4.71740917,10.5689949 4.74782609,10.7497759 4.74782609,10.9375 C4.74782609,11.8985068 3.95069828,12.6775568 2.9673913,12.6775568 C2.36538733,12.6775568 1.83316667,12.3855548 1.51092525,11.9385674 Z" id="Combined-Shape" fill="#31272F"></path>
                        <path d="M4.10869565,1.3671875 C4.10869565,1.3671875 4.99282754,3.46025198 5.93478261,4.55729167 C6.87673768,5.65433135 9.58695652,7.74739583 9.58695652,7.74739583" id="Path-3" stroke="#31272F" stroke-linecap="round" transform="translate(6.847826, 4.557292) rotate(-19.000000) translate(-6.847826, -4.557292) "></path>
                    </g>
                    <g id="EYE-Copy" transform="translate(6.000000, 9.911458) rotate(-360.000000) translate(-6.000000, -9.911458) translate(0.000000, 0.911458)">
                        <ellipse id="Oval-5" stroke="#31272F" stroke-width="0.5" fill="#FEFDF9" cx="6.89347826" cy="13.3461174" rx="4.15434783" ry="4.06013258"></ellipse>
                        <path d="M4.25005568,12.027109 C4.04292903,12.422804 3.92608696,12.8711252 3.92608696,13.3461174 C3.92608696,14.9477955 5.2546333,16.2462121 6.89347826,16.2462121 C8.53232322,16.2462121 9.86086957,14.9477955 9.86086957,13.3461174 C9.86086957,11.9132946 8.79767877,10.7231618 7.4002597,10.4881493 C7.45653961,10.6575366 7.48695652,10.8383175 7.48695652,11.0260417 C7.48695652,11.9870485 6.68982872,12.7660985 5.70652174,12.7660985 C5.10451776,12.7660985 4.5722971,12.4740965 4.25005568,12.027109 Z" id="Combined-Shape" fill="#31272F"></path>
                        <path d="M1.14655324,1.3962374 C1.14655324,1.3962374 2.03068513,3.48930188 2.9726402,4.58634156 C3.91459527,5.68338125 6.62481411,7.77644573 6.62481411,7.77644573" id="Path-3" stroke="#31272F" stroke-linecap="round" transform="translate(3.885684, 4.586342) rotate(-72.000000) translate(-3.885684, -4.586342) "></path>
                    </g>
                    <path d="M8.44565217,28.7679036 C8.44565217,28.7679036 13.9082286,27.9134115 16.8913043,27.9134115 C19.8743801,27.9134115 25.3369565,28.7679036 25.3369565,28.7679036" id="Path-28" stroke="#31272F" stroke-linecap="round" stroke-linejoin="round" transform="translate(16.891304, 28.413411) scale(1, -1) translate(-16.891304, -28.413411) "></path>
                </g>
            </g>
            <g id="Leaf" transform="translate(47.000000, 0.000000)">
                <path d="M32.9552973,40.007609 L37.0639929,53.2237548 C42.1273062,67.3460578 8.40319937,73.1429832 8.40319937,73.1429832" id="Arm" stroke="#31272F" stroke-width="2" stroke-linecap="round" transform="translate(22.992594, 56.575296) scale(1, -1) rotate(-41.000000) translate(-22.992594, -56.575296) "></path>
                <g id="leaf">
                    <mask id="mask-7" fill="white">
                        <use xlink:href="#path-6"></use>
                    </mask>
                    <g id="Path-31" transform="translate(18.472606, 18.432846) scale(-1, 1) rotate(-34.000000) translate(-18.472606, -18.432846) ">
                        <use fill="#417505" fill-rule="evenodd" xlink:href="#path-6"></use>
                        <use stroke="#2A4C03" mask="url(#mask-8)" stroke-width="4" xlink:href="#path-6"></use>
                    </g>
                    <path d="M10.9565217,3.64583333 C10.9565217,3.64583333 17.8043478,10.0260417 20.5434783,15.9505208 C23.2826087,21.875 23.7391304,31.9010417 23.7391304,31.9010417" id="Path-32" stroke="#2B4C04" stroke-width="2" stroke-linecap="round" mask="url(#mask-7)"></path>
                    <path d="M17.8043478,12.0515046 C17.8043478,12.0515046 16.4347826,11.5957755 14.6086957,12.0515046 C12.7826087,12.5072338 11.8695652,13.8744213 11.8695652,13.8744213" id="Path-33" stroke="#2B4C04" stroke-linecap="round" mask="url(#mask-7)"></path>
                    <path d="M26.0217391,12.0515046 C26.0217391,12.0515046 24.6521739,11.5957755 22.826087,12.0515046 C21,12.5072338 20.0869565,13.8744213 20.0869565,13.8744213" id="Path-33-Copy" stroke="#2B4C04" stroke-linecap="round" mask="url(#mask-7)"></path>
                    <path d="M20.5434783,17.5202546 C20.5434783,17.5202546 19.173913,17.0645255 17.3478261,17.5202546 C15.5217391,17.9759838 14.6086957,19.3431713 14.6086957,19.3431713" id="Path-33-Copy-3" stroke="#2B4C04" stroke-linecap="round" mask="url(#mask-7)"></path>
                    <path d="M28.7608696,21.166088 C28.7608696,21.166088 27.3913043,20.7103588 25.5652174,21.166088 C23.7391304,21.6218171 22.826087,22.9890046 22.826087,22.9890046" id="Path-33-Copy-4" stroke="#2B4C04" stroke-linecap="round" mask="url(#mask-7)"></path>
                    <path d="M23.2826087,25.7233796 C23.2826087,25.7233796 21.9130435,25.2676505 20.0869565,25.7233796 C18.2608696,26.1791088 17.3478261,27.5462963 17.3478261,27.5462963" id="Path-33-Copy-2" stroke="#2B4C04" stroke-linecap="round" mask="url(#mask-7)"></path>
                </g>
            </g>
        </g>
    </g>
</svg>