<?xml version="1.0" encoding="UTF-8"?>
<svg width="94px" height="137px" viewBox="0 0 94 137" version="1.1" xmlns="http://www.w3.org/2000/svg" xmlns:xlink="http://www.w3.org/1999/xlink">
    <!-- Generator: Sketch 42 (36781) - http://www.bohemiancoding.com/sketch -->
    <title>Strawberry</title>
    <desc>Created with Sketch.</desc>
    <defs>
        <path d="M33,79.5 C46.5,79.5 73,25.5 65.5,13.5 C57.2376208,-4.3231323 6.5,-4 1,13.5 C-4.5,31 19.5,79.5 33,79.5 Z" id="path-1"></path>
        <mask id="mask-3" maskContentUnits="userSpaceOnUse" maskUnits="objectBoundingBox" x="-2" y="-2" width="70.6174235" height="83.2464517">
            <rect x="-1.805" y="-1.74645172" width="70.6174235" height="83.2464517" fill="white"></rect>
            <use xlink:href="#path-1" fill="black"></use>
        </mask>
    </defs>
    <g id="Page-1" stroke="none" stroke-width="1" fill="none" fill-rule="evenodd">
        <g id="Strawberry" transform="translate(0.000000, -2.000000)">
            <path d="M26.6795271,100.46982 C26.6795271,100.46982 27.2319798,104.809017 28.9891892,112.121196 C30.7463986,119.433375 35.9532557,125.771198 35.9532557,125.771198 L29.478773,131.46982" id="StrawberryLeg1" stroke="#31272F" stroke-width="2" stroke-linecap="round" transform="translate(31.316391, 115.969820) rotate(30.000000) translate(-31.316391, -115.969820) "></path>
            <path d="M48.128778,104.113327 C48.128778,104.113327 48.6812306,108.452523 50.43844,115.764702 C52.1956495,123.076881 57.4025065,129.414705 57.4025065,129.414705 L50.9280239,135.113327" id="StrawberryLeg2" stroke="#31272F" stroke-width="2" stroke-linecap="round" transform="translate(52.765642, 119.613327) scale(-1, 1) rotate(30.000000) translate(-52.765642, -119.613327) "></path>
            <path d="M13.7243015,68 C13.7243015,68 17.3546476,77.5983147 18.2243015,82.5 C19.0939553,87.4016853 19.2243015,99 19.2243015,99" id="StrawberryArm1" stroke="#31272F" stroke-width="2" stroke-linecap="round" transform="translate(16.474301, 83.500000) scale(-1, 1) translate(-16.474301, -83.500000) "></path>
            <path d="M88.072341,26.0392148 C88.072341,26.0392148 73.3424457,25.0065903 71.6239535,33.5392148 C70.5226054,39.0076068 76.993838,51.2262066 81.783768,59.296842 C82.8807425,61.1451532 84.7280451,59.7863227 86.6239535,59.5392148 C88.5198618,59.2921069 92.1239535,59.296842 92.1239535,59.296842 C92.1239535,59.296842 82.4804482,59.6711995 82.1239535,60.0392148 C81.7674588,60.4072301 84.6239535,67.0392148 84.6239535,67.0392148" id="StrawberryArm2" stroke="#31272F" stroke-width="2" stroke-linecap="round" stroke-linejoin="round" transform="translate(81.811977, 46.519607) scale(-1, -1) translate(-81.811977, -46.519607) "></path>
            <g>
                <g id="Head" stroke="#417505">
                    <path d="M33.036398,48.0951007 C33.036398,48.0951007 45.7573987,35.8498698 45.7573987,24.6891961 C45.7573987,13.5285224 39.9671059,4.48100876 32.8244179,4.48100876 C25.6817298,4.48100876 19.8914371,13.5285224 19.8914371,24.6891961 C19.8914371,35.8498698 33.036398,48.0951007 33.036398,48.0951007 Z" id="Oval-8-Copy-5" fill="#639C31" transform="translate(32.824418, 26.288055) rotate(166.000000) translate(-32.824418, -26.288055) "></path>
                    <path d="M54.036398,49.0025712 C54.036398,49.0025712 66.7573987,36.7573403 66.7573987,25.5966666 C66.7573987,14.4359929 60.9671059,5.38847927 53.8244179,5.38847927 C46.6817298,5.38847927 40.8914371,14.4359929 40.8914371,25.5966666 C40.8914371,36.7573403 54.036398,49.0025712 54.036398,49.0025712 Z" id="Oval-8-Copy-6" fill="#639C31" transform="translate(53.824418, 27.195525) scale(-1, 1) rotate(166.000000) translate(-53.824418, -27.195525) "></path>
                    <path d="M55.0350922,42.2925709 C55.0350922,42.2925709 79.8254278,48.9023561 80.3405247,25.5628044 C80.8556216,2.22325266 73.735677,4.46407665 66.592989,4.46407665 C59.4503009,4.46407665 63.3562124,14.2200978 63.3562124,25.3807715 C63.3562124,36.5414452 55.0350922,42.2925709 55.0350922,42.2925709 Z" id="Oval-8-Copy-3" fill="#85A966" transform="translate(67.700990, 23.781366) rotate(222.000000) translate(-67.700990, -23.781366) "></path>
                    <path d="M10.8934181,53.0125542 C10.8934181,53.0125542 38.4733447,60.3661211 39.0464041,34.4002312 C39.6194635,8.43434129 31.6983304,10.9273193 23.7518945,10.9273193 C15.8054586,10.9273193 20.150892,21.7811598 20.150892,34.1977146 C20.150892,46.6142695 10.8934181,53.0125542 10.8934181,53.0125542 Z" id="Oval-8-Copy-4" fill="#85A966" transform="translate(24.984576, 32.418332) scale(-1, 1) rotate(222.000000) translate(-24.984576, -32.418332) "></path>
                    <path d="M45.1449609,46.6140919 C45.1449609,46.6140919 57.8659616,34.368861 57.8659616,23.2081873 C57.8659616,12.0475136 52.0756688,3 44.9329808,3 C37.7902927,3 32,12.0475136 32,23.2081873 C32,34.368861 45.1449609,46.6140919 45.1449609,46.6140919 Z" id="Oval-8-Copy-2" fill="#85A966" transform="translate(44.932981, 24.807046) rotate(180.000000) translate(-44.932981, -24.807046) "></path>
                </g>
                <g id="Body-+-Shadow" transform="translate(5.000000, 34.000000)">
                    <ellipse id="Oval-9" fill-opacity="0.463654891" fill="#24262A" cx="38" cy="103" rx="38" ry="2"></ellipse>
                    <g id="Body" transform="translate(7.000000, 0.000000)">
                        <mask id="mask-2" fill="white">
                            <use xlink:href="#path-1"></use>
                        </mask>
                        <g id="Triangle">
                            <use fill="#DB314E" fill-rule="evenodd" xlink:href="#path-1"></use>
                            <use stroke="#861D31" mask="url(#mask-3)" stroke-width="4" xlink:href="#path-1"></use>
                        </g>
                        <path d="M20,70 C20,70 31.5,80 43.5,66.5 C55.5,53 63.5,34.5 63.5,19.5 C63.5,4.5 43.5,-2.5 30,-2.5 C16.5,-2.5 80,6 80,6 L63.5,73.5 L20.5,87 L20,70 Z" id="Path-17" fill="#AB3247" mask="url(#mask-2)"></path>
                        <g id="EYE-2" mask="url(#mask-2)">
                            <g transform="translate(18.000000, 19.000000)">
                                <circle id="Oval-5" stroke="#31272F" stroke-width="0.5" fill="#FEFDF9" fill-rule="evenodd" cx="3.5" cy="6.5" r="3.5"></circle>
                                <path d="M1.27294068,5.36296092 C1.09843838,5.70406613 1,6.09053731 1,6.5 C1,7.88071187 2.11928813,9 3.5,9 C4.88071187,9 6,7.88071187 6,6.5 C6,5.26484827 5.10427149,4.23890515 3.92695872,4.03631487 C3.97437403,4.18233355 4,4.33817414 4,4.5 C4,5.32842712 3.32842712,6 2.5,6 C1.99281716,6 1.54442613,5.74828238 1.27294068,5.36296092 Z" id="Combined-Shape" stroke="none" fill="#31272F" fill-rule="evenodd"></path>
                                <path d="M1,1 L5,0" id="Path-4" stroke="#31272F" stroke-width="1" stroke-linecap="round" fill="none"></path>
                            </g>
                        </g>
                        <g id="EYE-2-Copy" mask="url(#mask-2)">
                            <g transform="translate(37.000000, 18.000000)">
                                <circle id="Oval-5" stroke="#31272F" stroke-width="0.5" fill="#FEFDF9" fill-rule="evenodd" cx="3.5" cy="7.5" r="3.5"></circle>
                                <path d="M1.27294068,6.36296092 C1.09843838,6.70406613 1,7.09053731 1,7.5 C1,8.88071187 2.11928813,10 3.5,10 C4.88071187,10 6,8.88071187 6,7.5 C6,6.26484827 5.10427149,5.23890515 3.92695872,5.03631487 C3.97437403,5.18233355 4,5.33817414 4,5.5 C4,6.32842712 3.32842712,7 2.5,7 C1.99281716,7 1.54442613,6.74828238 1.27294068,6.36296092 Z" id="Combined-Shape" stroke="none" fill="#31272F" fill-rule="evenodd"></path>
                                <path d="M2.5,0.5 L6.5,1.5" id="Path-4" stroke="#31272F" stroke-width="1" stroke-linecap="round" fill="none"></path>
                            </g>
                        </g>
                        <path d="M25.5,37.5 L38,37.5 C38,37.5 38.5,43.5 31.75,43.5 C25,43.5 25.5,37.5 25.5,37.5 Z" id="Path-15" fill="#31272F" mask="url(#mask-2)"></path>
                        <path d="M9.5,34 C8.75,34 8,37 8,37 C8,37 8,38.5 9.5,38.5 C11,38.5 11,37 11,37 C11,37 10.25,34 9.5,34 Z" id="Path-16" fill="#F9CF26" mask="url(#mask-2)"></path>
                        <path d="M21.3579884,54.4357504 C20.6079884,54.4357504 19.8579884,57.4357504 19.8579884,57.4357504 C19.8579884,57.4357504 19.8579884,58.9357504 21.3579884,58.9357504 C22.8579884,58.9357504 22.8579884,57.4357504 22.8579884,57.4357504 C22.8579884,57.4357504 22.1079884,54.4357504 21.3579884,54.4357504 Z" id="Path-16-Copy-4" fill="#F9CF26" mask="url(#mask-2)" transform="translate(21.357988, 56.685750) rotate(-27.000000) translate(-21.357988, -56.685750) "></path>
                        <path d="M42.3579884,54.4357504 C41.6079884,54.4357504 40.8579884,57.4357504 40.8579884,57.4357504 C40.8579884,57.4357504 40.8579884,58.9357504 42.3579884,58.9357504 C43.8579884,58.9357504 43.8579884,57.4357504 43.8579884,57.4357504 C43.8579884,57.4357504 43.1079884,54.4357504 42.3579884,54.4357504 Z" id="Path-16-Copy-5" fill="#F9CF26" mask="url(#mask-2)" transform="translate(42.357988, 56.685750) scale(-1, 1) rotate(-27.000000) translate(-42.357988, -56.685750) "></path>
                        <path d="M56.1508062,23.365769 C55.4008062,23.365769 54.6508062,26.365769 54.6508062,26.365769 C54.6508062,26.365769 54.6508062,27.865769 56.1508062,27.865769 C57.6508062,27.865769 57.6508062,26.365769 57.6508062,26.365769 C57.6508062,26.365769 56.9008062,23.365769 56.1508062,23.365769 Z" id="Path-16-Copy-3" fill="#F9CF26" mask="url(#mask-2)" transform="translate(56.150806, 25.615769) rotate(19.000000) translate(-56.150806, -25.615769) "></path>
                        <path d="M56.1508062,41.365769 C55.4008062,41.365769 54.6508062,44.365769 54.6508062,44.365769 C54.6508062,44.365769 54.6508062,45.865769 56.1508062,45.865769 C57.6508062,45.865769 57.6508062,44.365769 57.6508062,44.365769 C57.6508062,44.365769 56.9008062,41.365769 56.1508062,41.365769 Z" id="Path-16-Copy-6" fill="#F9CF26" mask="url(#mask-2)" transform="translate(56.150806, 43.615769) rotate(19.000000) translate(-56.150806, -43.615769) "></path>
                        <path d="M38.7864671,6 C38.2364731,6 36.9793366,9 36.9793366,9 C36.9793366,9 36.6257653,10.5 38.1686358,10.5 C39.7115063,10.5 39.7698225,9 39.7698225,9 C39.7698225,9 39.336461,6 38.7864671,6 Z" id="Path-16-Copy-2" fill="#F9CF26" mask="url(#mask-2)"></path>
                        <path d="M11.5,14 C10.75,14 10,17 10,17 C10,17 10,18.5 11.5,18.5 C13,18.5 13,17 13,17 C13,17 12.25,14 11.5,14 Z" id="Path-16-Copy" fill="#F9CF26" mask="url(#mask-2)"></path>
                    </g>
                </g>
            </g>
        </g>
    </g>
</svg>