<?xml version="1.0" encoding="UTF-8"?>
<svg width="101px" height="120px" viewBox="0 0 101 120" version="1.1" xmlns="http://www.w3.org/2000/svg" xmlns:xlink="http://www.w3.org/1999/xlink">
    <!-- Generator: Sketch 42 (36781) - http://www.bohemiancoding.com/sketch -->
    <title>Watermelon</title>
    <desc>Created with Sketch.</desc>
    <defs>
        <path d="M1,81 C1,81 -2.5,99.5 44,99.5 C90.5,99.5 90.5,82.5 90.5,82.5 C90.5,82.5 63.5,0.5 49,0.5 C34.5,0.5 1,81 1,81 Z" id="path-1"></path>
        <mask id="mask-2" maskContentUnits="userSpaceOnUse" maskUnits="objectBoundingBox" x="0" y="0" width="89.5599179" height="99" fill="white">
            <use xlink:href="#path-1"></use>
        </mask>
        <mask id="mask-4" maskContentUnits="userSpaceOnUse" maskUnits="objectBoundingBox" x="0" y="0" width="89.5599179" height="99" fill="white">
            <use xlink:href="#path-1"></use>
        </mask>
    </defs>
    <g id="Page-1" stroke="none" stroke-width="1" fill="none" fill-rule="evenodd">
        <g id="Watermelon">
            <path d="M23.3798324,95.7195179 C23.3798324,95.7195179 23.763807,98.3845814 24.9851312,102.875602 C26.2064554,107.366623 29.8254097,111.25921 29.8254097,111.25921 L25.3254097,114.75921" id="Path-6-Copy-2" stroke="#31272F" stroke-width="2" stroke-linecap="round" transform="translate(26.602621, 105.239364) rotate(30.000000) translate(-26.602621, -105.239364) "></path>
            <ellipse id="Oval-9" fill-opacity="0.463654891" fill="#24262A" cx="45" cy="117.095187" rx="38" ry="2"></ellipse>
            <path d="M55.3798324,95.7195179 C55.3798324,95.7195179 55.763807,98.3845814 56.9851312,102.875602 C58.2064554,107.366623 61.8254097,111.25921 61.8254097,111.25921 L57.3254097,114.75921" id="Path-6" stroke="#31272F" stroke-width="2" stroke-linecap="round" transform="translate(58.602621, 105.239364) rotate(30.000000) translate(-58.602621, -105.239364) "></path>
            <g id="Group-8">
                <mask id="mask-3" fill="white">
                    <use xlink:href="#path-1"></use>
                </mask>
                <g id="body" stroke="#AF0D2C" mask="url(#mask-2)" stroke-width="4" stroke-linejoin="round" fill="#E50F38">
                    <use mask="url(#mask-4)" xlink:href="#path-1"></use>
                </g>
                <path d="M3,76.5 C3,76.5 -2.5,99.5 44,99.5 C90.5,99.5 90,82.5 90,82.5 C90,82.5 89.9720147,77.872618 88.5,78 C88.3128388,78.0161961 86.5904701,71.9605137 85.5,69.5 C79.7121868,73.0682095 64.8560112,82.0952004 47,81.5 C24.5,80.75 13.5,76 6,70.0394863 C5.5,72 3,76.5 3,76.5 Z" id="body-copy" stroke="#5DAD05" stroke-linejoin="round" fill="#7ED321" mask="url(#mask-3)"></path>
                <path d="M1,81 C1,81 -2.5,99.5 44,99.5 C90.5,99.5 90.5,82.5 90.5,82.5 C90.5,82.5 89,79 88.5,77.5 C87.5932089,77.5523133 69.5,90 47,89.5 C24.5,89 13.1754592,83.7956123 3,76.5 C2,78.5 1,81 1,81 Z" id="body-copy-2" stroke="#355F04" stroke-linejoin="round" fill="#417505" mask="url(#mask-3)"></path>
            </g>
            <path d="M35.5,70 C34.75,70 34,73 34,73 C34,73 34,74.5 35.5,74.5 C37,74.5 37,73 37,73 C37,73 36.25,70 35.5,70 Z" id="Path-16" fill="#861E32"></path>
            <path d="M15.5,67 C14.75,67 14,70 14,70 C14,70 14,71.5 15.5,71.5 C17,71.5 17,70 17,70 C17,70 16.25,67 15.5,67 Z" id="Path-16-Copy-8" fill="#861E32" transform="translate(15.500000, 69.250000) rotate(13.000000) translate(-15.500000, -69.250000) "></path>
            <path d="M68.1508062,52.365769 C67.4008062,52.365769 66.6508062,55.365769 66.6508062,55.365769 C66.6508062,55.365769 66.6508062,56.865769 68.1508062,56.865769 C69.6508062,56.865769 69.6508062,55.365769 69.6508062,55.365769 C69.6508062,55.365769 68.9008062,52.365769 68.1508062,52.365769 Z" id="Path-16-Copy-3" fill="#861E32" transform="translate(68.150806, 54.615769) rotate(-26.000000) translate(-68.150806, -54.615769) "></path>
            <path d="M70.1508062,69.365769 C69.4008062,69.365769 68.6508062,72.365769 68.6508062,72.365769 C68.6508062,72.365769 68.6508062,73.865769 70.1508062,73.865769 C71.6508062,73.865769 71.6508062,72.365769 71.6508062,72.365769 C71.6508062,72.365769 70.9008062,69.365769 70.1508062,69.365769 Z" id="Path-16-Copy-6" fill="#861E32" transform="translate(70.150806, 71.615769) rotate(19.000000) translate(-70.150806, -71.615769) "></path>
            <path d="M60.8420543,29 C60.2920603,29 59.0349238,32 59.0349238,32 C59.0349238,32 58.6813524,33.5 60.224223,33.5 C61.7670935,33.5 61.8254097,32 61.8254097,32 C61.8254097,32 61.3920482,29 60.8420543,29 Z" id="Path-16-Copy-2" fill="#861E32"></path>
            <path d="M41.8420543,19 C41.2920603,19 40.0349238,22 40.0349238,22 C40.0349238,22 39.6813524,23.5 41.224223,23.5 C42.7670935,23.5 42.8254097,22 42.8254097,22 C42.8254097,22 42.3920482,19 41.8420543,19 Z" id="Path-16-Copy-7" fill="#861E32"></path>
            <path d="M30.5,34 C29.75,34 29,37 29,37 C29,37 29,38.5 30.5,38.5 C32,38.5 32,37 32,37 C32,37 31.25,34 30.5,34 Z" id="Path-16-Copy" fill="#861E32"></path>
            <path d="M5.43939471,57.9090313 C5.43939471,57.9090313 19.6802674,63.0687752 20.0362908,65.3166183 C20.3923142,67.5644613 12.6868996,79.6426941 12.6868996,79.6426941" id="Path-14-Copy" stroke="#31272F" stroke-width="2" stroke-linecap="round" transform="translate(12.743827, 68.775863) scale(-1, 1) rotate(9.000000) translate(-12.743827, -68.775863) "></path>
            <path d="M40,59 L51,59 C51,59 51,65 45.5,65 C40,65 40,59 40,59 Z" id="Path-27" fill="#31272F"></path>
            <path d="M98.4516834,27.6896807 C98.4516834,27.6896807 83.721788,26.6570563 82.0032958,35.1896807 C80.9019477,40.6580727 87.3731803,52.8766726 92.1631103,60.9473079 C93.2600848,62.7956191 95.1073874,61.4367886 97.0032958,61.1896807 C98.8992041,60.9425728 102.503296,60.9473079 102.503296,60.9473079 C102.503296,60.9473079 92.8597905,61.3216654 92.5032958,61.6896807 C92.1468011,62.057696 93.4126452,67.4763757 93.4126452,67.4763757" id="arm" stroke="#31272F" stroke-width="2" stroke-linecap="round" stroke-linejoin="round" transform="translate(92.191319, 47.563421) scale(-1, -1) rotate(25.000000) translate(-92.191319, -47.563421) "></path>
            <g id="EYE-2" transform="translate(32.000000, 36.000000)">
                <ellipse id="Oval-5" stroke="#31272F" stroke-width="0.5" fill="#FEFDF9" cx="3.5" cy="8.5" rx="3.5" ry="3.5"></ellipse>
                <path d="M1.27294068,7.36296092 C1.09843838,7.70406613 1,8.09053731 1,8.5 C1,9.88071187 2.11928813,11 3.5,11 C4.88071187,11 6,9.88071187 6,8.5 C6,7.26484827 5.10427149,6.23890515 3.92695872,6.03631487 C3.97437403,6.18233355 4,6.33817414 4,6.5 C4,7.32842712 3.32842712,8 2.5,8 C1.99281716,8 1.54442613,7.74828238 1.27294068,7.36296092 Z" id="Combined-Shape" fill="#31272F"></path>
                <path d="M0.5,0.5 L5,2" id="Path-4" stroke="#31272F" stroke-linecap="round"></path>
            </g>
            <g id="EYE-2-Copy" transform="translate(51.000000, 36.000000)">
                <ellipse id="Oval-5" stroke="#31272F" stroke-width="0.5" fill="#FEFDF9" cx="3.5" cy="8.5" rx="3.5" ry="3.5"></ellipse>
                <path d="M1.27294068,7.36296092 C1.09843838,7.70406613 1,8.09053731 1,8.5 C1,9.88071187 2.11928813,11 3.5,11 C4.88071187,11 6,9.88071187 6,8.5 C6,7.26484827 5.10427149,6.23890515 3.92695872,6.03631487 C3.97437403,6.18233355 4,6.33817414 4,6.5 C4,7.32842712 3.32842712,8 2.5,8 C1.99281716,8 1.54442613,7.74828238 1.27294068,7.36296092 Z" id="Combined-Shape" fill="#31272F"></path>
                <path d="M2.5,1.5 L6.5,0.5" id="Path-4" stroke="#31272F" stroke-linecap="round"></path>
            </g>
        </g>
    </g>
</svg>